<?xml version="1.0" encoding="UTF-8"?>
<svg width="40px" height="40px" viewBox="0 0 40 40" version="1.1" xmlns="http://www.w3.org/2000/svg" xmlns:xlink="http://www.w3.org/1999/xlink">
    <!-- Generator: Sketch 53.1 (72631) - https://sketchapp.com -->
    <title>news-event</title>
    <desc>Created with Sketch.</desc>
    <g id="news-event" stroke="none" stroke-width="1" fill="none" fill-rule="evenodd">
        <circle id="Oval" fill="#D0D0D0" cx="20" cy="20" r="20"></circle>
        <g id="GlobeIcon" transform="translate(8.000000, 8.000000)" fill="#595A5C" fill-rule="nonzero">
            <polygon id="Path" points="0.265957447 13.1533688 0.265957447 12.1117021 24.4893617 12.1117021 24.4893617 13.1533688"></polygon>
            <path d="M12.3776596,24.7553191 C5.54166695,24.7553191 -1.42108547e-14,19.2136522 -1.42108547e-14,12.3776596 C-1.42108547e-14,5.54166695 5.54166695,-2.13162821e-14 12.3776596,-2.13162821e-14 C19.2136522,-2.13162821e-14 24.7553191,5.54166695 24.7553191,12.3776596 C24.7553191,19.2136522 19.2136522,24.7553191 12.3776596,24.7553191 Z M12.3776596,24.2234043 C18.9198837,24.2234043 24.2234043,18.9198837 24.2234043,12.3776596 C24.2234043,5.83543544 18.9198837,0.531914894 12.3776596,0.531914894 C5.83543544,0.531914894 0.531914894,5.83543544 0.531914894,12.3776596 C0.531914894,18.9198837 5.83543544,24.2234043 12.3776596,24.2234043 Z" id="Oval"></path>
            <path d="M12.3776596,24.7553191 C6.99695046,24.7553191 2.66489362,19.2012125 2.66489362,12.3776596 C2.66489362,5.55410667 6.99695046,-2.13162821e-14 12.3776596,-2.13162821e-14 C17.7583687,-2.13162821e-14 22.0904255,5.55410667 22.0904255,12.3776596 C22.0904255,19.2012125 17.7583687,24.7553191 12.3776596,24.7553191 Z M12.3776596,24.2234043 C17.431607,24.2234043 21.5585106,18.9323234 21.5585106,12.3776596 C21.5585106,5.82299572 17.431607,0.531914894 12.3776596,0.531914894 C7.32371214,0.531914894 3.19680851,5.82299572 3.19680851,12.3776596 C3.19680851,18.9323234 7.32371214,24.2234043 12.3776596,24.2234043 Z" id="Oval"></path>
            <path d="M12.3776596,24.7553191 C8.44663985,24.7553191 5.33510638,19.1941247 5.33510638,12.3776596 C5.33510638,5.56119444 8.44663985,-2.13162821e-14 12.3776596,-2.13162821e-14 C16.3086793,-2.13162821e-14 19.4202128,5.56119444 19.4202128,12.3776596 C19.4202128,19.1941247 16.3086793,24.7553191 12.3776596,24.7553191 Z M12.3776596,24.2234043 C15.9318608,24.2234043 18.8882979,18.9394112 18.8882979,12.3776596 C18.8882979,5.81590795 15.9318608,0.531914894 12.3776596,0.531914894 C8.82345832,0.531914894 5.86702128,5.81590795 5.86702128,12.3776596 C5.86702128,18.9394112 8.82345832,24.2234043 12.3776596,24.2234043 Z" id="Oval"></path>
            <path d="M12.3776596,24.7553191 C9.88200422,24.7553191 8,19.2115629 8,12.3776596 C8,5.54375629 9.88200422,-2.13162821e-14 12.3776596,-2.13162821e-14 C14.8733149,-2.13162821e-14 16.7553191,5.54375629 16.7553191,12.3776596 C16.7553191,19.2115629 14.8733149,24.7553191 12.3776596,24.7553191 Z M12.3776596,24.2234043 C14.423665,24.2234043 16.2234043,18.9219731 16.2234043,12.3776596 C16.2234043,5.8333461 14.423665,0.531914894 12.3776596,0.531914894 C10.3316542,0.531914894 8.53191489,5.8333461 8.53191489,12.3776596 C8.53191489,18.9219731 10.3316542,24.2234043 12.3776596,24.2234043 Z" id="Oval"></path>
            <path d="M12.3776596,24.7553191 C11.3056894,24.7553191 10.6702128,19.4159082 10.6702128,12.3776596 C10.6702128,5.3394109 11.3056894,-2.13162821e-14 12.3776596,-2.13162821e-14 C13.4496297,-2.13162821e-14 14.0851064,5.3394109 14.0851064,12.3776596 C14.0851064,19.4159082 13.4496297,24.7553191 12.3776596,24.7553191 Z M12.3776596,24.2234043 C12.8979146,24.2234043 13.5531915,18.7176277 13.5531915,12.3776596 C13.5531915,6.03769149 12.8979146,0.531914894 12.3776596,0.531914894 C11.8574045,0.531914894 11.2021277,6.03769149 11.2021277,12.3776596 C11.2021277,18.7176277 11.8574045,24.2234043 12.3776596,24.2234043 Z" id="Oval"></path>
            <path d="M12.3776596,24.7553191 C5.54166695,24.7553191 -1.42108547e-14,19.2136522 -1.42108547e-14,12.3776596 C-1.42108547e-14,5.54166695 5.54166695,-2.13162821e-14 12.3776596,-2.13162821e-14 C19.2136522,-2.13162821e-14 24.7553191,5.54166695 24.7553191,12.3776596 C24.7553191,19.2136522 19.2136522,24.7553191 12.3776596,24.7553191 Z M12.3776596,24.2234043 C18.9198837,24.2234043 24.2234043,18.9198837 24.2234043,12.3776596 C24.2234043,5.83543544 18.9198837,0.531914894 12.3776596,0.531914894 C5.83543544,0.531914894 0.531914894,5.83543544 0.531914894,12.3776596 C0.531914894,18.9198837 5.83543544,24.2234043 12.3776596,24.2234043 Z" id="Oval"></path>
            <path d="M12.3776596,24.7553191 C6.99695046,24.7553191 2.66489362,19.2012125 2.66489362,12.3776596 C2.66489362,5.55410667 6.99695046,-2.13162821e-14 12.3776596,-2.13162821e-14 C17.7583687,-2.13162821e-14 22.0904255,5.55410667 22.0904255,12.3776596 C22.0904255,19.2012125 17.7583687,24.7553191 12.3776596,24.7553191 Z M12.3776596,24.2234043 C17.431607,24.2234043 21.5585106,18.9323234 21.5585106,12.3776596 C21.5585106,5.82299572 17.431607,0.531914894 12.3776596,0.531914894 C7.32371214,0.531914894 3.19680851,5.82299572 3.19680851,12.3776596 C3.19680851,18.9323234 7.32371214,24.2234043 12.3776596,24.2234043 Z" id="Oval"></path>
            <path d="M12.3776596,24.7553191 C8.44663985,24.7553191 5.33510638,19.1941247 5.33510638,12.3776596 C5.33510638,5.56119444 8.44663985,-2.13162821e-14 12.3776596,-2.13162821e-14 C16.3086793,-2.13162821e-14 19.4202128,5.56119444 19.4202128,12.3776596 C19.4202128,19.1941247 16.3086793,24.7553191 12.3776596,24.7553191 Z M12.3776596,24.2234043 C15.9318608,24.2234043 18.8882979,18.9394112 18.8882979,12.3776596 C18.8882979,5.81590795 15.9318608,0.531914894 12.3776596,0.531914894 C8.82345832,0.531914894 5.86702128,5.81590795 5.86702128,12.3776596 C5.86702128,18.9394112 8.82345832,24.2234043 12.3776596,24.2234043 Z" id="Oval"></path>
            <path d="M12.3776596,24.7553191 C9.88200422,24.7553191 8,19.2115629 8,12.3776596 C8,5.54375629 9.88200422,-2.13162821e-14 12.3776596,-2.13162821e-14 C14.8733149,-2.13162821e-14 16.7553191,5.54375629 16.7553191,12.3776596 C16.7553191,19.2115629 14.8733149,24.7553191 12.3776596,24.7553191 Z M12.3776596,24.2234043 C14.423665,24.2234043 16.2234043,18.9219731 16.2234043,12.3776596 C16.2234043,5.8333461 14.423665,0.531914894 12.3776596,0.531914894 C10.3316542,0.531914894 8.53191489,5.8333461 8.53191489,12.3776596 C8.53191489,18.9219731 10.3316542,24.2234043 12.3776596,24.2234043 Z" id="Oval"></path>
            <path d="M12.3776596,24.7553191 C11.3056894,24.7553191 10.6702128,19.4159082 10.6702128,12.3776596 C10.6702128,5.3394109 11.3056894,-2.13162821e-14 12.3776596,-2.13162821e-14 C13.4496297,-2.13162821e-14 14.0851064,5.3394109 14.0851064,12.3776596 C14.0851064,19.4159082 13.4496297,24.7553191 12.3776596,24.7553191 Z M12.3776596,24.2234043 C12.8979146,24.2234043 13.5531915,18.7176277 13.5531915,12.3776596 C13.5531915,6.03769149 12.8979146,0.531914894 12.3776596,0.531914894 C11.8574045,0.531914894 11.2021277,6.03769149 11.2021277,12.3776596 C11.2021277,18.7176277 11.8574045,24.2234043 12.3776596,24.2234043 Z" id="Oval"></path>
        </g>
    </g>
</svg>