<?xml version="1.0" encoding="UTF-8"?>
<svg width="40px" height="40px" viewBox="0 0 40 40" version="1.1" xmlns="http://www.w3.org/2000/svg" xmlns:xlink="http://www.w3.org/1999/xlink">
    <!-- Generator: Sketch 53.1 (72631) - https://sketchapp.com -->
    <title>news-press</title>
    <desc>Created with Sketch.</desc>
    <g id="news-press" stroke="none" stroke-width="1" fill="none" fill-rule="evenodd">
        <circle id="Oval" fill="#D0D0D0" cx="20" cy="20" r="20"></circle>
        <g id="PropulsionIcon-Copy" transform="translate(7.000000, 7.000000)" fill="#595A5C" fill-rule="nonzero">
            <path d="M13.5,14.8532609 C12.3954305,14.8532609 11.5,13.9578304 11.5,12.8532609 C11.5,11.7486914 12.3954305,10.8532609 13.5,10.8532609 C14.6045695,10.8532609 15.5,11.7486914 15.5,12.8532609 C15.5,13.9578304 14.6045695,14.8532609 13.5,14.8532609 Z M13.5,14.3097826 C14.3044147,14.3097826 14.9565217,13.6576756 14.9565217,12.8532609 C14.9565217,12.0488461 14.3044147,11.3967391 13.5,11.3967391 C12.6955853,11.3967391 12.0434783,12.0488461 12.0434783,12.8532609 C12.0434783,13.6576756 12.6955853,14.3097826 13.5,14.3097826 Z" id="Oval"></path>
            <path d="M18.4864926,1.09763838 L18.2743769,1.5980138 C16.7743054,0.962113909 15.161566,0.630434783 13.5,0.630434783 C11.6161969,0.630434783 9.79510103,1.05567213 8.14676916,1.86357163 L7.90757866,1.3755588 C9.6301111,0.531291258 11.5329922,0.0869565217 13.5,0.0869565217 C15.2348871,0.0869565217 16.9197178,0.43346209 18.4864926,1.09763838 Z" id="Path"></path>
            <path d="M20.2463089,4.45666076 L19.905865,4.88029576 C18.10129,3.43009345 15.8604923,2.625 13.5,2.625 C11.6993985,2.625 9.96937458,3.09056806 8.43907806,3.96424799 L8.16961759,3.49227375 C9.78142735,2.57205612 11.6042247,2.08152174 13.5,2.08152174 C15.9855716,2.08152174 18.346164,2.92965608 20.2463089,4.45666076 Z" id="Path"></path>
            <path d="M20.3365534,7.35662386 L19.9134466,7.69772397 C18.355777,5.76556235 16.021547,4.61956522 13.5,4.61956522 C12.3794228,4.61956522 11.2892138,4.84558415 10.2748791,5.27721593 L10.0620774,4.77713189 C11.1431584,4.31709744 12.3056795,4.07608696 13.5,4.07608696 C16.1880193,4.07608696 18.6769675,5.2980434 20.3365534,7.35662386 Z" id="Path"></path>
            <path d="M19.3767136,9.47295828 L18.9058951,9.74443303 C17.797838,7.82273015 15.7548314,6.61413043 13.5,6.61413043 C13.2625063,6.61413043 13.042922,6.62575549 12.8426778,6.65017551 L12.7768874,6.11069406 C13.0005224,6.0834215 13.2417207,6.07065217 13.5,6.07065217 C15.9512842,6.07065217 18.1726623,7.38477268 19.3767136,9.47295828 Z" id="Path"></path>
            <path d="M17.9773456,11.17111 L17.4683065,11.3614987 C16.9812692,10.0593147 15.8743985,9.07233174 14.516313,8.7366252 L14.6467305,8.20902698 C16.1790515,8.58780294 17.4275183,9.70104542 17.9773456,11.17111 Z" id="Path"></path>
            <path d="M25.2556225,17.8397535 L24.7552471,17.6276378 C25.391147,16.1275663 25.7228261,14.5148269 25.7228261,12.8532609 C25.7228261,10.9694577 25.2975887,9.1483619 24.4896892,7.50003003 L24.9777021,7.26083953 C25.8219696,8.98337197 26.2663043,10.8862531 26.2663043,12.8532609 C26.2663043,14.5881479 25.9197988,16.2729787 25.2556225,17.8397535 Z" id="Path"></path>
            <path d="M21.8911653,19.594135 L21.4675303,19.2536911 C22.9177326,17.4491161 23.7228261,15.2083184 23.7228261,12.8478261 C23.7228261,11.0472246 23.257258,9.31720066 22.3835781,7.78690415 L22.8555523,7.51744368 C23.77577,9.12925344 24.2663043,10.9520508 24.2663043,12.8478261 C24.2663043,15.3333977 23.41817,17.69399 21.8911653,19.594135 Z" id="Path"></path>
            <path d="M18.996637,19.6843795 L18.6555369,19.2612727 C20.5854163,17.705443 21.7282609,15.3719007 21.7282609,12.8478261 C21.7282609,11.7272489 21.5022419,10.6370399 21.0706102,9.62270521 L21.5706942,9.40990349 C22.0307286,10.4909844 22.2717391,11.6535056 22.2717391,12.8478261 C22.2717391,15.538171 21.0530801,18.0265166 18.996637,19.6843795 Z" id="Path"></path>
            <path d="M16.8748678,18.7245397 L16.6033931,18.2537212 C18.5250959,17.1456641 19.7336957,15.1026574 19.7336957,12.8478261 C19.7336957,12.6103324 19.7220706,12.3907481 19.6976506,12.1905039 L20.237132,12.1247135 C20.2644046,12.3483485 20.2771739,12.5895468 20.2771739,12.8478261 C20.2771739,15.2991103 18.9630534,17.5204884 16.8748678,18.7245397 Z" id="Path"></path>
            <path d="M15.1821508,17.3251717 L14.9917622,16.8161326 C16.2939462,16.3290953 17.2809291,15.2222246 17.6166357,13.8641391 L18.1442339,13.9945566 C17.7654579,15.5268776 16.6522155,16.7753444 15.1821508,17.3251717 Z" id="Path"></path>
            <path d="M8.51350738,24.6034486 L8.72562305,24.1030732 C10.2256946,24.738973 11.838434,25.0706522 13.5,25.0706522 C15.3838031,25.0706522 17.204899,24.6454148 18.8532308,23.8375153 L19.0924213,24.3255282 C17.3698889,25.1697957 15.4670078,25.6141304 13.5,25.6141304 C11.7651129,25.6141304 10.0802822,25.2676249 8.51350738,24.6034486 Z" id="Path"></path>
            <path d="M6.75369112,21.2444262 L7.09413496,20.8207912 C8.89871002,22.2709935 11.1395077,23.076087 13.5,23.076087 C15.3006015,23.076087 17.0306254,22.6105189 18.5609219,21.736839 L18.8303824,22.2088132 C17.2185726,23.1290308 15.3957753,23.6195652 13.5,23.6195652 C11.0144284,23.6195652 8.65383604,22.7714309 6.75369112,21.2444262 Z" id="Path"></path>
            <path d="M6.66344662,18.3444631 L7.08655338,18.003363 C8.64238313,19.9332424 10.9759253,21.076087 13.5,21.076087 C14.6205772,21.076087 15.7107862,20.850068 16.7251209,20.4184362 L16.9379226,20.9185203 C15.8568416,21.3785547 14.6943205,21.6195652 13.5,21.6195652 C10.8096551,21.6195652 8.32130946,20.4009062 6.66344662,18.3444631 Z" id="Path"></path>
            <path d="M7.62328639,16.2281287 L8.09410491,15.9566539 C9.202162,17.8783568 11.2451686,19.0869565 13.5,19.0869565 C13.7374937,19.0869565 13.957078,19.0753315 14.1573222,19.0509114 L14.2231126,19.5903929 C13.9994776,19.6176655 13.7582793,19.6304348 13.5,19.6304348 C11.0487158,19.6304348 8.82733769,18.3163143 7.62328639,16.2281287 Z" id="Path"></path>
            <path d="M9.02265437,14.5299769 L9.53169345,14.3395883 C10.0187308,15.6417723 11.1256015,16.6287552 12.483687,16.9644618 L12.3532695,17.49206 C10.8209485,17.113284 9.57248169,16.0000415 9.02265437,14.5299769 Z" id="Path"></path>
            <path d="M1.74437751,7.86676825 L2.24475293,8.07888392 C1.60885304,9.57895545 1.27717391,11.1916949 1.27717391,12.8532609 C1.27717391,14.737064 1.70241126,16.5581598 2.51031076,18.2064917 L2.02229793,18.4456822 C1.17803039,16.7231498 0.733695652,14.8202686 0.733695652,12.8532609 C0.733695652,11.1183738 1.08020122,9.43354308 1.74437751,7.86676825 Z" id="Path"></path>
            <path d="M5.10883467,6.10695199 L5.53246967,6.44739583 C4.08226736,8.25197089 3.27717391,10.4927685 3.27717391,12.8532609 C3.27717391,14.6538624 3.74274197,16.3838863 4.6164219,17.9141828 L4.14444767,18.1836433 C3.22423004,16.5718335 2.73369565,14.7490362 2.73369565,12.8532609 C2.73369565,10.3676893 3.58183,8.00709691 5.10883467,6.10695199 Z" id="Path"></path>
            <path d="M8.00336299,6.01670749 L8.3444631,6.43981425 C6.41458369,7.995644 5.27173913,10.3291862 5.27173913,12.8532609 C5.27173913,13.9738381 5.49775806,15.0640471 5.92938985,16.0783817 L5.42930581,16.2911835 C4.96927135,15.2101025 4.72826087,14.0475813 4.72826087,12.8532609 C4.72826087,10.162916 5.94691989,7.67457033 8.00336299,6.01670749 Z" id="Path"></path>
            <path d="M10.1251322,6.97654726 L10.3966069,7.44736578 C8.47490406,8.55542287 7.26630435,10.5984295 7.26630435,12.8532609 C7.26630435,13.0907545 7.2779294,13.3103389 7.30234942,13.5105831 L6.76286797,13.5763735 C6.73559541,13.3527385 6.72282609,13.1115402 6.72282609,12.8532609 C6.72282609,10.4019767 8.0369466,8.18059856 10.1251322,6.97654726 Z" id="Path"></path>
            <path d="M11.8178492,8.37591524 L12.0082378,8.88495432 C10.7060538,9.37199163 9.71907087,10.4788624 9.38336433,11.8369479 L8.85576611,11.7065304 C9.23454207,10.1742094 10.3477845,8.92574256 11.8178492,8.37591524 Z" id="Path"></path>
        </g>
    </g>
</svg>