<?xml version="1.0" encoding="UTF-8"?>
<svg width="40px" height="40px" viewBox="0 0 40 40" version="1.1" xmlns="http://www.w3.org/2000/svg" xmlns:xlink="http://www.w3.org/1999/xlink">
    <!-- Generator: Sketch 53.1 (72631) - https://sketchapp.com -->
    <title>news-work</title>
    <desc>Created with Sketch.</desc>
    <g id="news-work" stroke="none" stroke-width="1" fill="none" fill-rule="evenodd">
        <circle id="Oval" fill="#D0D0D0" cx="20" cy="20" r="20"></circle>
        <g id="Group" transform="translate(6.000000, 5.000000)">
            <path d="M14.5538571,12.2918571 C12.5975857,12.2918571 11.0117143,10.7059858 11.0117143,8.74971429 C11.0117143,6.7934428 12.5975857,5.20757143 14.5538571,5.20757143 C16.5101286,5.20757143 18.096,6.7934428 18.096,8.74971429 C18.096,10.7059858 16.5101286,12.2918571 14.5538571,12.2918571 Z M14.5538571,11.8775714 C16.2813249,11.8775714 17.6817143,10.4771821 17.6817143,8.74971429 C17.6817143,7.02224649 16.2813249,5.62185714 14.5538571,5.62185714 C12.8263893,5.62185714 11.426,7.02224649 11.426,8.74971429 C11.426,10.4771821 12.8263893,11.8775714 14.5538571,11.8775714 Z" id="Oval" fill="#595A5C" fill-rule="nonzero"></path>
            <path d="M14.5248571,11.1815714 C13.1657633,11.1815714 12.064,10.0798082 12.064,8.72071429 C12.064,7.36162041 13.1657633,6.25985714 14.5248571,6.25985714 C15.883951,6.25985714 16.9857143,7.36162041 16.9857143,8.72071429 C16.9857143,10.0798082 15.883951,11.1815714 14.5248571,11.1815714 Z M14.5248571,10.7672857 C15.6551473,10.7672857 16.5714286,9.85100448 16.5714286,8.72071429 C16.5714286,7.5904241 15.6551473,6.67414286 14.5248571,6.67414286 C13.394567,6.67414286 12.4782857,7.5904241 12.4782857,8.72071429 C12.4782857,9.85100448 13.394567,10.7672857 14.5248571,10.7672857 Z" id="Oval" fill="#595A5C" fill-rule="nonzero"></path>
            <path d="M14.5,10.0671429 C13.7380837,10.0671429 13.1204286,9.44948769 13.1204286,8.68757143 C13.1204286,7.92565517 13.7380837,7.308 14.5,7.308 C15.2619163,7.308 15.8795714,7.92565517 15.8795714,8.68757143 C15.8795714,9.44948769 15.2619163,10.0671429 14.5,10.0671429 Z M14.5,9.65285714 C15.0331126,9.65285714 15.4652857,9.22068401 15.4652857,8.68757143 C15.4652857,8.15445885 15.0331126,7.72228571 14.5,7.72228571 C13.9668874,7.72228571 13.5347143,8.15445885 13.5347143,8.68757143 C13.5347143,9.22068401 13.9668874,9.65285714 14.5,9.65285714 Z" id="Oval" fill="#595A5C" fill-rule="nonzero"></path>
            <path d="M20.9042221,13.6264506 L20.9052868,13.6274928 C21.2804251,13.9973474 21.2902236,14.599961 20.9252864,14.9754754 C18.7687145,17.2040743 15.662734,18.2125095 12.6125907,17.6744977 C11.3977718,17.4628568 10.2531767,17.0182708 9.21770021,16.3562441 C8.77301995,16.0703782 8.64231591,15.48221 8.92761303,15.0384145 C9.21237931,14.5954447 9.79909359,14.4666935 10.2447493,14.7478835 C11.0687356,15.2729728 11.9796347,15.6267595 12.9450639,15.7957098 C15.3719541,16.223036 17.8420297,15.4205081 19.5548792,13.6472065 C19.9206188,13.2708657 20.5281923,13.2610132 20.9042221,13.6264506 Z M19.8524183,13.9354819 C18.044354,15.8073602 15.435686,16.6549168 12.8734355,16.2037563 C11.8544131,16.0254274 10.8921232,15.6516808 10.0228942,15.097758 C9.77001787,14.938205 9.43765246,15.0111408 9.27610126,15.2624426 C9.11499602,15.5130508 9.18879751,15.8451575 9.44129421,16.0074776 C10.4300474,16.6396312 11.5229518,17.0641394 12.6841251,17.2664348 C15.5991587,17.7806144 18.5666381,16.817147 20.6278792,14.6870636 C20.8335811,14.4753993 20.8282002,14.1338259 20.6149577,13.9230307 C20.4032219,13.7178327 20.058332,13.723601 19.8524183,13.9354819 Z" id="Path" fill="#595A5C" fill-rule="nonzero"></path>
            <path d="M19.4392857,15.3281271 L19.1887143,14.9908913 C19.4929485,14.754703 19.7908237,14.4829177 20.0945072,14.1681271 L20.3894928,14.4654669 C20.072615,14.7939342 19.7601735,15.07901 19.4392857,15.3281271 Z" id="Path" fill="#595A5C" fill-rule="nonzero"></path>
            <path d="M11.6804489,16.6825674 L11.8012653,16.2862897 C12.1483804,16.3921174 12.486472,16.4748742 12.8167647,16.5331612 C14.6038625,16.8490017 16.4314884,16.5583861 18.0284467,15.7170219 L18.2215533,16.0835495 C16.5435871,16.9675931 14.6227043,17.2730377 12.7447159,16.9411337 C12.3972852,16.8798224 12.0430096,16.7931042 11.6804489,16.6825674 Z" id="Path" fill="#595A5C" fill-rule="nonzero"></path>
            <polygon id="Path" fill="#595A5C" fill-rule="nonzero" points="19.4743305 14.1052492 19.0956695 14.2733222 17.343241 10.3251794 17.7219019 10.1571064"></polygon>
            <polygon id="Path" fill="#595A5C" fill-rule="nonzero" points="11.3277786 10.0453254 11.7065071 10.213246 9.59779285 14.969246 9.21906429 14.8013254"></polygon>
            <polygon id="Path" fill="#595A5C" fill-rule="nonzero" points="8.82969939 15.6753248 9.20830061 15.8435323 6.61487204 21.680818 6.23627081 21.5126105"></polygon>
            <polygon id="Path" fill="#595A5C" fill-rule="nonzero" points="22.7637073 21.5125613 22.3851498 21.6808673 19.7254356 15.6985816 20.103993 15.5302756"></polygon>
            <polygon id="Path" fill="#595A5C" fill-rule="nonzero" points="9.67893485 16.4045809 10.0576366 16.572562 6.78477944 23.9509906 6.40607771 23.7830094"></polygon>
            <polygon id="Path" fill="#595A5C" fill-rule="nonzero" points="22.5938907 23.7829381 22.2152522 23.9510619 18.8305379 16.3282047 19.2091764 16.160081"></polygon>
            <polygon id="Path" fill="#595A5C" fill-rule="nonzero" points="18.5960127 14.7804627 18.2174159 14.9486802 16.5975587 11.3029659 16.9761555 11.1347484"></polygon>
            <polygon id="Path" fill="#595A5C" fill-rule="nonzero" points="12.052837 11.0643365 12.4314487 11.2325206 10.6665915 15.2055206 10.2879799 15.0373365"></polygon>
            <polygon id="Path" fill="#595A5C" fill-rule="nonzero" points="17.6556113 15.3108097 17.2769601 15.4789046 15.686103 11.8953332 16.0647542 11.7272383"></polygon>
            <polygon id="Path" fill="#595A5C" fill-rule="nonzero" points="12.9560131 11.6856904 13.3345583 11.8540239 11.6359869 15.6737382 11.2574417 15.5054047"></polygon>
            <polygon id="Path" fill="#595A5C" fill-rule="nonzero" points="10.652543 16.8684982 11.0311713 17.0366447 6.950398 26.2256346 6.53196942 27.1660632 6.15345915 26.9976511 6.57182869 26.0573553"></polygon>
            <polygon id="Path" fill="#595A5C" fill-rule="nonzero" points="22.8465409 26.9976511 22.4680306 27.1660632 22.0495469 26.2255107 17.8818326 16.8419393 18.2604531 16.673775 22.4281123 26.0572225"></polygon>
            <path d="M14.5538571,5.62185714 C14.4221579,5.62185714 14.2922419,5.63311653 14.1134544,5.657277 L13.8785714,5.68901795 L13.8785714,2.82542857 C13.8785714,2.48316959 14.157741,2.204 14.5,2.204 C14.842259,2.204 15.1214286,2.48316959 15.1214286,2.82542857 L15.1214286,5.66595087 L14.8922181,5.64139261 C14.7720778,5.62852043 14.6616576,5.62185714 14.5538571,5.62185714 Z M14.5538571,5.20757143 C14.6045559,5.20757143 14.6554717,5.20883936 14.7071429,5.21132572 L14.7071429,2.82542857 C14.7071429,2.71197327 14.6134553,2.61828571 14.5,2.61828571 C14.3865447,2.61828571 14.2928571,2.71197327 14.2928571,2.82542857 L14.2928571,5.21968379 C14.3842286,5.21155102 14.4679866,5.20757143 14.5538571,5.20757143 Z" id="Path" fill="#595A5C" fill-rule="nonzero"></path>
            <rect id="Rectangle" x="0" y="0" width="29" height="29"></rect>
            <path d="M18.734,16.4678571 C18.2283439,16.4678571 17.8184286,16.0579419 17.8184286,15.5522857 C17.8184286,15.0466296 18.2283439,14.6367143 18.734,14.6367143 C19.2396561,14.6367143 19.6495714,15.0466296 19.6495714,15.5522857 C19.6495714,16.0579419 19.2396561,16.4678571 18.734,16.4678571 Z M18.734,16.0535714 C19.0108525,16.0535714 19.2352857,15.8291382 19.2352857,15.5522857 C19.2352857,15.2754333 19.0108525,15.051 18.734,15.051 C18.4571475,15.051 18.2327143,15.2754333 18.2327143,15.5522857 C18.2327143,15.8291382 18.4571475,16.0535714 18.734,16.0535714 Z" id="Oval" fill="#595A5C" fill-rule="nonzero"></path>
        </g>
    </g>
</svg>