<svg width="32" height="32" viewBox="0 0 32 32" fill="none" xmlns="http://www.w3.org/2000/svg">
  <circle cx="16" cy="16" r="16" fill="#5800AA"/>
  <path
    d="M21.6586 17.5762C22.4872 17.5762 23.1589 18.2463 23.1589 19.0731C23.1589 19.8998 22.4872 20.5699 21.6586 20.5699C20.8299 20.5699 20.1582 19.8998 20.1582 19.0731C20.1582 18.2463 20.8299 17.5762 21.6586 17.5762Z"
    fill="white"/>
  <path
    d="M21.6586 12.2722C22.4872 12.2722 23.1589 12.9424 23.1589 13.7691C23.1589 14.5958 22.4872 15.266 21.6586 15.266C20.8299 15.266 20.1582 14.5958 20.1582 13.7691C20.1582 12.9424 20.8299 12.2722 21.6586 12.2722Z"
    fill="white"/>
  <path
    d="M17.5363 12.6402C16.9837 12.3966 16.3947 12.2693 15.7666 12.2693C15.1665 12.2693 14.612 12.3762 14.1041 12.59C13.5963 12.8039 13.1555 13.094 12.7818 13.4603C12.4081 13.8266 12.1136 14.2636 11.9002 14.7703C11.6859 15.277 11.5787 15.8246 11.5787 16.4104C11.5787 17.0091 11.6822 17.5623 11.8909 18.069C12.0987 18.5758 12.3867 19.0155 12.7548 19.3884C13.1219 19.7612 13.5599 20.0541 14.0687 20.2679C14.5766 20.4817 15.119 20.5887 15.694 20.5887C16.3351 20.5887 16.9436 20.4566 17.5205 20.1944L17.5372 20.2205V22.7866C16.9324 22.9465 16.3183 23.0283 15.693 23.0283C14.7378 23.0283 13.8404 22.8572 13.0017 22.5151C12.163 22.173 11.4371 21.709 10.8248 21.1223C10.2126 20.5357 9.72891 19.8356 9.37386 19.0239C9.01788 18.2104 8.84082 17.3401 8.84082 16.4113C8.84082 15.4825 9.01508 14.615 9.36454 13.8089C9.71307 13.0028 10.1939 12.3055 10.8062 11.7198C11.4184 11.1331 12.1444 10.6682 12.9831 10.327C13.8218 9.98488 14.7248 9.8138 15.693 9.8138C16.3183 9.8138 16.9324 9.89655 17.5363 10.062V12.6402Z"
    fill="white"/>
</svg>
