<svg width="90" height="90" viewBox="0 0 90 90" fill="none" xmlns="http://www.w3.org/2000/svg">
  <path
    d="M54.5 38.7549C45.9533 38.7549 39 45.6644 39 54.1574C39 62.6504 45.9533 69.5599 54.5 69.5599C63.0467 69.5599 70 62.6504 70 54.1574C70 45.6644 63.0467 38.7549 54.5 38.7549ZM54.5 66.0593C47.8956 66.0593 42.5227 60.7203 42.5227 54.1574C42.5227 47.5945 47.8956 42.2555 54.5 42.2555C61.1044 42.2555 66.4773 47.5945 66.4773 54.1574C66.4773 60.7203 61.1044 66.0593 54.5 66.0593Z"
    fill="black"/>
  <path
    d="M88.2539 79.325L74.4324 65.59C74.3891 65.547 74.3445 65.5068 74.2985 65.4692C76.2355 62.1353 77.3444 58.2698 77.3444 54.1511V12.4494C77.3444 8.66718 74.2477 5.58979 70.4416 5.58979H66.7028V4.81465C66.7028 2.15963 64.5289 0 61.8578 0C59.1861 0 57.0129 2.15963 57.0129 4.81465V5.58979H42.9421V4.81465C42.9421 2.15963 40.7689 0 38.0972 0C35.4261 0 33.2529 2.15963 33.2529 4.81465V5.58979H19.1814V4.81465C19.1814 2.15963 17.0082 0 14.3365 0C11.6654 0 9.49219 2.15963 9.49219 4.81465V5.58979H6.90285C3.09677 5.58979 0 8.66718 0 12.4494V57.6447C0 62.4608 3.94272 66.3788 8.78906 66.3788H22.3455C23.3164 66.3788 24.1033 65.5968 24.1033 64.632C24.1033 63.6671 23.3164 62.8852 22.3455 62.8852H8.78906C5.88112 62.8852 3.51562 60.5345 3.51562 57.6447V23.0579H73.8288V42.0627C71.7393 38.7737 68.8259 36.0518 65.3769 34.1877C65.4256 33.8622 65.4504 33.5326 65.4504 33.199C65.4504 29.5388 62.4538 26.5611 58.7707 26.5611C55.6615 26.5611 53.0413 28.6839 52.3004 31.547C49.628 31.8015 47.0888 32.5146 44.7631 33.6063C44.7713 33.4719 44.7768 33.3361 44.7768 33.199C44.7768 29.5388 41.7803 26.5611 38.0972 26.5611C34.414 26.5611 31.4175 29.5388 31.4175 33.199C31.4175 36.4387 33.7665 39.1429 36.8612 39.7208C33.6017 43.6471 31.6413 48.6753 31.6413 54.1504C31.6413 66.6722 41.8929 76.859 54.4929 76.859C58.634 76.859 62.5204 75.759 65.8733 73.8375L79.8246 87.7015C80.9871 88.856 82.5128 89.434 84.0392 89.434C85.5656 89.434 87.0921 88.856 88.2545 87.7015C89.38 86.5831 90 85.0956 90 83.5132C90 81.9316 89.38 80.444 88.2539 79.325ZM60.5285 4.81465C60.5285 4.0859 61.1252 3.49362 61.8578 3.49362C62.5905 3.49362 63.1872 4.0859 63.1872 4.81465V5.58979H60.5285V4.81465ZM36.7685 4.81465C36.7685 4.0859 37.3645 3.49362 38.0972 3.49362C38.8305 3.49362 39.4265 4.0859 39.4265 4.81465V5.58979H36.7685V4.81465ZM13.0078 4.81465C13.0078 4.0859 13.6038 3.49362 14.3372 3.49362C15.0698 3.49362 15.6658 4.0859 15.6658 4.81465V5.58979H13.0078V4.81465ZM3.51562 19.5643V12.4494C3.51562 10.5935 5.03517 9.08342 6.90285 9.08342H9.49219V11.4825C9.49219 14.1369 11.6654 16.2965 14.3372 16.2965C17.0082 16.2965 19.1814 14.1369 19.1814 11.4825C19.1814 10.5177 18.3945 9.73574 17.4236 9.73574C16.4527 9.73574 15.6658 10.5177 15.6658 11.4825C15.6658 12.2106 15.0698 12.8029 14.3372 12.8029C13.6038 12.8029 13.0078 12.2106 13.0078 11.4825V9.08342H33.2529V11.4825C33.2529 14.1369 35.4261 16.2965 38.0972 16.2965C40.7689 16.2965 42.9421 14.1369 42.9421 11.4825C42.9421 10.5177 42.1552 9.73574 41.1843 9.73574C40.2134 9.73574 39.4265 10.5177 39.4265 11.4825C39.4265 12.2106 38.8305 12.8029 38.0972 12.8029C37.3645 12.8029 36.7685 12.2106 36.7685 11.4825V9.08342H57.0129V11.4825C57.0129 14.1369 59.1861 16.2965 61.8578 16.2965C64.5289 16.2965 66.7028 14.1369 66.7028 11.4825C66.7028 10.5177 65.9152 9.73574 64.945 9.73574C63.9741 9.73574 63.1872 10.5177 63.1872 11.4825C63.1872 12.2106 62.5905 12.8029 61.8578 12.8029C61.1252 12.8029 60.5285 12.2106 60.5285 11.4825V9.08342H70.4416C72.3093 9.08342 73.8288 10.5935 73.8288 12.4494V19.5643H3.51562ZM58.7707 30.0547C60.3314 30.0547 61.6278 31.184 61.8853 32.6626C60.054 32.039 58.1184 31.6405 56.1127 31.5006C56.6764 30.6326 57.6562 30.0547 58.7707 30.0547ZM34.9331 33.199C34.9331 31.4658 36.3531 30.0547 38.0972 30.0547C39.8419 30.0547 41.2612 31.4658 41.2612 33.199C41.2612 34.9328 39.8419 36.3432 38.0972 36.3432C36.3531 36.3432 34.9331 34.9328 34.9331 33.199ZM35.1569 54.1511C35.1569 43.5563 43.8313 34.9362 54.4929 34.9362C65.1544 34.9362 73.8288 43.5563 73.8288 54.1511C73.8288 64.7466 65.1544 73.366 54.4929 73.366C43.8313 73.366 35.1569 64.7466 35.1569 54.1511ZM85.7682 85.2314C84.8151 86.1785 83.264 86.1792 82.3109 85.2314L68.8218 71.8267C70.0935 70.8066 71.2525 69.6548 72.2791 68.391L85.7682 81.7958C86.2303 82.2543 86.4844 82.8643 86.4844 83.5132C86.4844 84.1621 86.2303 84.7729 85.7682 85.2314Z"
    fill="black"/>
  <path
    d="M54.6365 46.7041C53.7326 46.7041 53 47.4327 53 48.3303C53 49.2285 53.7326 49.9565 54.6365 49.9565C56.8918 49.9565 58.727 51.7802 58.727 54.0213C58.727 54.9195 59.4596 55.6475 60.3635 55.6475C61.2674 55.6475 62 54.9195 62 54.0213C62 49.987 58.697 46.7041 54.6365 46.7041Z"
    fill="black"/>
  <path
    d="M17.5 25.8369C13.9159 25.8369 11 28.9574 11 32.7929C11 36.6284 13.9159 39.7489 17.5 39.7489C21.0841 39.7489 24 36.6284 24 32.7929C24 28.9574 21.0841 25.8369 17.5 25.8369ZM17.5 36.0878C15.8022 36.0878 14.4211 34.6098 14.4211 32.7929C14.4211 30.9767 15.8022 29.498 17.5 29.498C19.1978 29.498 20.5789 30.9767 20.5789 32.7929C20.5789 34.6098 19.1978 36.0878 17.5 36.0878Z"
    fill="black"/>
  <path
    d="M17.5 44.7168C13.9159 44.7168 11 47.6144 11 51.1759C11 54.7375 13.9159 57.635 17.5 57.635C21.0841 57.635 24 54.7375 24 51.1759C24 47.6144 21.0841 44.7168 17.5 44.7168ZM17.5 54.2355C15.8022 54.2355 14.4211 52.8631 14.4211 51.1759C14.4211 49.4888 15.8022 48.1163 17.5 48.1163C19.1978 48.1163 20.5789 49.4888 20.5789 51.1759C20.5789 52.8631 19.1978 54.2355 17.5 54.2355Z"
    fill="black"/>
</svg>
