<svg width="24" height="24" viewBox="0 0 24 24" fill="none" xmlns="http://www.w3.org/2000/svg">
  <path
    d="M8.97013 4.80646C9.35985 5.19601 9.35985 5.84267 8.97777 6.24002L4.33935 10.9848H22.0142C22.5568 10.9848 23 11.4367 23 11.9976C23 12.5586 22.5568 13.0105 22.0142 13.0105H4.33935L8.98541 17.7553C9.36749 18.1526 9.35985 18.7915 8.97777 19.1888C8.58805 19.5784 7.96909 19.5784 7.57937 19.181L1.28274 12.7144C1.19868 12.6209 1.12991 12.5196 1.07642 12.395C1.02292 12.2703 1 12.1379 1 12.0054C1 11.7405 1.09934 11.4912 1.28274 11.2964L7.57937 4.82983C7.9538 4.42469 8.58041 4.4169 8.97013 4.80646Z"
    fill="#5800AA"/>
</svg>
