<svg width="12" height="12" viewBox="0 0 12 12" fill="none" xmlns="http://www.w3.org/2000/svg">
<path fill-rule="evenodd" clip-rule="evenodd" d="M2 3V10H10V3H2ZM1.5 2C1.22386 2 1 2.22386 1 2.5V10.5C1 10.7761 1.22386 11 1.5 11H10.5C10.7761 11 11 10.7761 11 10.5V2.5C11 2.22386 10.7761 2 10.5 2H1.5Z" fill="white"/>
<path d="M2.5 1.5C2.5 1.22386 2.72386 1 3 1C3.27614 1 3.5 1.22386 3.5 1.5V2H2.5V1.5Z" fill="white"/>
<path d="M5.5 1.5C5.5 1.22386 5.72386 1 6 1C6.27614 1 6.5 1.22386 6.5 1.5V2H5.5V1.5Z" fill="white"/>
<path d="M8.5 1.5C8.5 1.22386 8.72386 1 9 1C9.27614 1 9.5 1.22386 9.5 1.5V2H8.5V1.5Z" fill="white"/>
<rect x="5.75" y="5" width="0.5" height="2" fill="white"/>
<rect x="7.75" y="6.5" width="0.5" height="2" transform="rotate(90 7.75 6.5)" fill="white"/>
</svg>
