<svg width="284" height="74" viewBox="0 0 284 74" fill="none" xmlns="http://www.w3.org/2000/svg">
<rect width="284" height="74" rx="37" fill="#101010" fill-opacity="0.6"/>
<g filter="url(#filter0_d)">
<path d="M81.0946 41.192C80.284 41.192 79.5373 41.0427 78.8546 40.744C78.172 40.4453 77.58 40.04 77.0786 39.528C76.5773 39.0053 76.1826 38.392 75.8946 37.688C75.6173 36.984 75.4786 36.232 75.4786 35.432V35.4C75.4786 34.6107 75.6173 33.864 75.8946 33.16C76.1826 32.456 76.5773 31.8427 77.0786 31.32C77.58 30.7867 78.1773 30.3707 78.8706 30.072C79.564 29.7627 80.3213 29.608 81.1426 29.608C81.6546 29.608 82.1133 29.6507 82.5186 29.736C82.9346 29.8213 83.3186 29.944 83.6706 30.104C84.0226 30.2533 84.348 30.44 84.6466 30.664C84.9453 30.8773 85.2333 31.1173 85.5106 31.384L84.6466 32.312C84.1666 31.864 83.6493 31.496 83.0946 31.208C82.5506 30.92 81.8946 30.776 81.1266 30.776C80.508 30.776 79.932 30.8933 79.3986 31.128C78.876 31.3627 78.4173 31.688 78.0226 32.104C77.6386 32.52 77.3346 33.0107 77.1106 33.576C76.8973 34.1307 76.7906 34.728 76.7906 35.368V35.4C76.7906 36.0507 76.8973 36.6587 77.1106 37.224C77.3346 37.7787 77.6386 38.264 78.0226 38.68C78.4173 39.096 78.876 39.4267 79.3986 39.672C79.932 39.9067 80.508 40.024 81.1266 40.024C81.8946 40.024 82.556 39.8853 83.1106 39.608C83.6653 39.32 84.2093 38.92 84.7426 38.408L85.5746 39.224C85.2866 39.5227 84.9826 39.7947 84.6626 40.04C84.3533 40.2747 84.0173 40.4773 83.6546 40.648C83.292 40.8187 82.9026 40.952 82.4866 41.048C82.0706 41.144 81.6066 41.192 81.0946 41.192ZM87.6911 29.32H88.9231V41H87.6911V29.32ZM91.8943 32.728H93.1263V41H91.8943V32.728ZM91.8143 29.56H93.2223V30.92H91.8143V29.56ZM99.7134 41.192C99.1054 41.192 98.54 41.08 98.0174 40.856C97.5054 40.6213 97.0574 40.312 96.6734 39.928C96.3 39.5333 96.0067 39.0747 95.7934 38.552C95.58 38.0293 95.4734 37.48 95.4734 36.904V36.872C95.4734 36.2853 95.58 35.7307 95.7934 35.208C96.0067 34.6853 96.3 34.2267 96.6734 33.832C97.0574 33.4373 97.5054 33.128 98.0174 32.904C98.54 32.6693 99.1054 32.552 99.7134 32.552C100.108 32.552 100.465 32.5893 100.785 32.664C101.105 32.7387 101.399 32.8453 101.665 32.984C101.932 33.112 102.177 33.2667 102.401 33.448C102.625 33.6293 102.833 33.8213 103.025 34.024L102.209 34.888C101.879 34.5467 101.516 34.2533 101.121 34.008C100.737 33.7627 100.263 33.64 99.6974 33.64C99.2814 33.64 98.892 33.7253 98.5294 33.896C98.1667 34.056 97.852 34.28 97.5854 34.568C97.3187 34.856 97.1107 35.1973 96.9614 35.592C96.812 35.976 96.7374 36.392 96.7374 36.84V36.872C96.7374 37.32 96.812 37.7413 96.9614 38.136C97.1214 38.52 97.3347 38.8613 97.6014 39.16C97.8787 39.448 98.1987 39.6773 98.5614 39.848C98.9347 40.008 99.34 40.088 99.7774 40.088C100.311 40.088 100.78 39.9707 101.185 39.736C101.601 39.5013 101.975 39.208 102.305 38.856L103.089 39.592C102.673 40.0613 102.199 40.4453 101.665 40.744C101.143 41.0427 100.492 41.192 99.7134 41.192ZM105.126 29.32H106.358V37.384L110.822 32.728H112.358L108.886 36.28L112.47 41H110.998L108.038 37.144L106.358 38.84V41H105.126V29.32ZM121.8 41.144C121.47 41.144 121.16 41.1013 120.872 41.016C120.584 40.9307 120.334 40.7973 120.12 40.616C119.918 40.424 119.758 40.1787 119.64 39.88C119.523 39.5813 119.464 39.224 119.464 38.808V33.816H118.312V32.728H119.464V30.232H120.696V32.728H123.32V33.816H120.696V38.648C120.696 39.16 120.824 39.5173 121.08 39.72C121.336 39.9227 121.672 40.024 122.088 40.024C122.302 40.024 122.499 40.0027 122.68 39.96C122.872 39.9173 123.075 39.8427 123.288 39.736V40.792C123.075 40.9093 122.846 40.9947 122.6 41.048C122.366 41.112 122.099 41.144 121.8 41.144ZM129.309 40.088C129.757 40.088 130.168 40.0027 130.541 39.832C130.914 39.6613 131.234 39.432 131.501 39.144C131.768 38.856 131.976 38.52 132.125 38.136C132.274 37.752 132.349 37.3413 132.349 36.904V36.872C132.349 36.424 132.269 36.008 132.109 35.624C131.96 35.2293 131.746 34.888 131.469 34.6C131.192 34.3013 130.866 34.0667 130.493 33.896C130.12 33.7253 129.714 33.64 129.277 33.64C128.829 33.64 128.418 33.7253 128.045 33.896C127.672 34.0667 127.352 34.296 127.085 34.584C126.829 34.872 126.626 35.2133 126.477 35.608C126.328 35.992 126.253 36.4027 126.253 36.84V36.872C126.253 37.32 126.328 37.7413 126.477 38.136C126.637 38.52 126.85 38.856 127.117 39.144C127.394 39.432 127.72 39.6613 128.093 39.832C128.466 40.0027 128.872 40.088 129.309 40.088ZM129.277 41.192C128.658 41.192 128.088 41.08 127.565 40.856C127.042 40.6213 126.589 40.312 126.205 39.928C125.821 39.5333 125.522 39.08 125.309 38.568C125.096 38.0453 124.989 37.4907 124.989 36.904V36.872C124.989 36.2853 125.096 35.7307 125.309 35.208C125.522 34.6853 125.821 34.2267 126.205 33.832C126.589 33.4373 127.042 33.128 127.565 32.904C128.098 32.6693 128.68 32.552 129.309 32.552C129.928 32.552 130.498 32.6693 131.021 32.904C131.554 33.128 132.013 33.4373 132.397 33.832C132.781 34.216 133.08 34.6693 133.293 35.192C133.506 35.704 133.613 36.2533 133.613 36.84V36.872C133.613 37.4587 133.501 38.0133 133.277 38.536C133.064 39.0587 132.765 39.5173 132.381 39.912C131.997 40.3067 131.538 40.6213 131.005 40.856C130.472 41.08 129.896 41.192 129.277 41.192ZM146.706 36.376C146.674 36.0027 146.594 35.6507 146.466 35.32C146.338 34.9787 146.162 34.68 145.938 34.424C145.724 34.168 145.458 33.9653 145.138 33.816C144.828 33.6667 144.471 33.592 144.066 33.592C143.714 33.592 143.383 33.6613 143.074 33.8C142.764 33.9387 142.492 34.136 142.258 34.392C142.023 34.6373 141.826 34.9307 141.666 35.272C141.516 35.6133 141.42 35.9813 141.378 36.376H146.706ZM141.378 37.368C141.42 37.8053 141.527 38.1947 141.698 38.536C141.868 38.8773 142.087 39.1653 142.354 39.4C142.62 39.6347 142.919 39.816 143.25 39.944C143.58 40.0613 143.927 40.12 144.29 40.12C144.866 40.12 145.356 40.0133 145.762 39.8C146.178 39.5867 146.556 39.304 146.898 38.952L147.666 39.64C147.25 40.1093 146.775 40.488 146.242 40.776C145.708 41.0533 145.047 41.192 144.258 41.192C143.692 41.192 143.159 41.0907 142.658 40.888C142.156 40.6747 141.719 40.3813 141.346 40.008C140.972 39.624 140.674 39.1653 140.45 38.632C140.236 38.0987 140.13 37.512 140.13 36.872C140.13 36.2747 140.226 35.7147 140.418 35.192C140.62 34.6587 140.898 34.2 141.25 33.816C141.602 33.4213 142.018 33.112 142.498 32.888C142.988 32.664 143.522 32.552 144.098 32.552C144.706 32.552 145.25 32.6693 145.73 32.904C146.21 33.128 146.615 33.4373 146.946 33.832C147.276 34.2267 147.527 34.6907 147.698 35.224C147.868 35.7573 147.954 36.328 147.954 36.936C147.954 36.9893 147.954 37.0533 147.954 37.128C147.954 37.192 147.948 37.272 147.938 37.368H141.378ZM150.11 32.728H151.342V34.168C151.62 33.72 151.982 33.3413 152.43 33.032C152.878 32.712 153.46 32.552 154.174 32.552C154.676 32.552 155.118 32.632 155.502 32.792C155.897 32.952 156.228 33.1813 156.494 33.48C156.772 33.768 156.98 34.1147 157.118 34.52C157.268 34.9253 157.342 35.3733 157.342 35.864V41H156.11V36.168C156.11 35.4 155.913 34.792 155.518 34.344C155.124 33.896 154.558 33.672 153.822 33.672C153.47 33.672 153.14 33.736 152.83 33.864C152.532 33.9813 152.27 34.1573 152.046 34.392C151.822 34.616 151.646 34.888 151.518 35.208C151.401 35.528 151.342 35.88 151.342 36.264V41H150.11V32.728ZM162.674 40.184C163.058 40.184 163.415 40.1307 163.746 40.024C164.076 39.9173 164.364 39.768 164.61 39.576C164.866 39.3733 165.063 39.1387 165.202 38.872C165.351 38.5947 165.426 38.2907 165.426 37.96V37.192C165.116 37.1067 164.764 37.0267 164.37 36.952C163.975 36.8773 163.522 36.84 163.01 36.84C162.242 36.84 161.644 36.9947 161.218 37.304C160.802 37.6027 160.594 38.0027 160.594 38.504V38.536C160.594 38.792 160.647 39.0267 160.754 39.24C160.871 39.4427 161.026 39.6133 161.218 39.752C161.41 39.8907 161.628 39.9973 161.874 40.072C162.13 40.1467 162.396 40.184 162.674 40.184ZM162.434 41.176C162.05 41.176 161.671 41.1227 161.298 41.016C160.924 40.9093 160.594 40.7493 160.306 40.536C160.018 40.312 159.783 40.04 159.602 39.72C159.431 39.4 159.346 39.0267 159.346 38.6V38.568C159.346 38.12 159.431 37.7307 159.602 37.4C159.772 37.0587 160.012 36.776 160.322 36.552C160.642 36.328 161.015 36.1573 161.442 36.04C161.879 35.9227 162.359 35.864 162.882 35.864C163.415 35.864 163.874 35.896 164.258 35.96C164.652 36.024 165.036 36.1093 165.41 36.216V35.96C165.41 35.224 165.196 34.6693 164.77 34.296C164.343 33.912 163.74 33.72 162.962 33.72C162.471 33.72 162.023 33.7733 161.618 33.88C161.223 33.9867 160.834 34.1307 160.45 34.312L160.082 33.304C160.54 33.0907 161.004 32.92 161.474 32.792C161.943 32.664 162.482 32.6 163.09 32.6C164.263 32.6 165.154 32.904 165.762 33.512C166.338 34.088 166.626 34.8987 166.626 35.944V41H165.41V39.768C165.122 40.1413 164.732 40.472 164.242 40.76C163.762 41.0373 163.159 41.176 162.434 41.176ZM173.411 40.072C173.806 40.072 174.179 40.0027 174.531 39.864C174.894 39.7147 175.203 39.5067 175.459 39.24C175.726 38.9627 175.934 38.6267 176.083 38.232C176.243 37.8373 176.323 37.3893 176.323 36.888V36.856C176.323 36.3653 176.243 35.9227 176.083 35.528C175.934 35.1333 175.726 34.7973 175.459 34.52C175.193 34.2427 174.883 34.0293 174.531 33.88C174.179 33.7307 173.806 33.656 173.411 33.656C173.027 33.656 172.654 33.736 172.291 33.896C171.939 34.0453 171.619 34.264 171.331 34.552C171.054 34.8293 170.83 35.1653 170.659 35.56C170.499 35.944 170.419 36.3707 170.419 36.84V36.872C170.419 37.352 170.499 37.7893 170.659 38.184C170.83 38.5787 171.054 38.9147 171.331 39.192C171.619 39.4693 171.939 39.688 172.291 39.848C172.654 39.9973 173.027 40.072 173.411 40.072ZM173.635 41.176C173.251 41.176 172.899 41.128 172.579 41.032C172.259 40.936 171.971 40.808 171.715 40.648C171.459 40.488 171.225 40.3013 171.011 40.088C170.809 39.8747 170.627 39.6507 170.467 39.416V41H169.235V29.32H170.467V34.392C170.638 34.1467 170.825 33.912 171.027 33.688C171.241 33.464 171.475 33.272 171.731 33.112C171.987 32.9413 172.27 32.808 172.579 32.712C172.899 32.6053 173.251 32.552 173.635 32.552C174.126 32.552 174.606 32.648 175.075 32.84C175.555 33.032 175.982 33.3147 176.355 33.688C176.729 34.0507 177.027 34.4987 177.251 35.032C177.475 35.5547 177.587 36.1573 177.587 36.84V36.872C177.587 37.544 177.475 38.1467 177.251 38.68C177.027 39.2133 176.729 39.6667 176.355 40.04C175.993 40.4027 175.571 40.6853 175.091 40.888C174.622 41.08 174.137 41.176 173.635 41.176ZM179.972 29.32H181.204V41H179.972V29.32ZM190.128 36.376C190.096 36.0027 190.016 35.6507 189.888 35.32C189.76 34.9787 189.584 34.68 189.36 34.424C189.146 34.168 188.88 33.9653 188.56 33.816C188.25 33.6667 187.893 33.592 187.488 33.592C187.136 33.592 186.805 33.6613 186.496 33.8C186.186 33.9387 185.914 34.136 185.68 34.392C185.445 34.6373 185.248 34.9307 185.088 35.272C184.938 35.6133 184.842 35.9813 184.799 36.376H190.128ZM184.799 37.368C184.842 37.8053 184.949 38.1947 185.12 38.536C185.29 38.8773 185.509 39.1653 185.776 39.4C186.042 39.6347 186.341 39.816 186.672 39.944C187.002 40.0613 187.349 40.12 187.712 40.12C188.288 40.12 188.778 40.0133 189.184 39.8C189.6 39.5867 189.978 39.304 190.32 38.952L191.088 39.64C190.672 40.1093 190.197 40.488 189.664 40.776C189.13 41.0533 188.469 41.192 187.68 41.192C187.114 41.192 186.581 41.0907 186.08 40.888C185.578 40.6747 185.141 40.3813 184.768 40.008C184.394 39.624 184.096 39.1653 183.872 38.632C183.658 38.0987 183.552 37.512 183.552 36.872C183.552 36.2747 183.648 35.7147 183.84 35.192C184.042 34.6587 184.32 34.2 184.672 33.816C185.024 33.4213 185.44 33.112 185.92 32.888C186.41 32.664 186.944 32.552 187.52 32.552C188.128 32.552 188.672 32.6693 189.152 32.904C189.632 33.128 190.037 33.4373 190.368 33.832C190.698 34.2267 190.949 34.6907 191.12 35.224C191.29 35.7573 191.376 36.328 191.376 36.936C191.376 36.9893 191.376 37.0533 191.376 37.128C191.376 37.192 191.37 37.272 191.36 37.368H184.799ZM201.065 41.16C200.468 41.16 199.865 41.0533 199.257 40.84C198.649 40.616 198.11 40.3173 197.641 39.944L198.265 39.064C198.713 39.4053 199.177 39.6667 199.657 39.848C200.148 40.0293 200.638 40.12 201.129 40.12C201.63 40.12 202.041 40.0027 202.361 39.768C202.681 39.5333 202.841 39.2133 202.841 38.808V38.776C202.841 38.5733 202.782 38.3973 202.665 38.248C202.558 38.0987 202.409 37.9707 202.217 37.864C202.025 37.7467 201.801 37.6453 201.545 37.56C201.3 37.4747 201.044 37.3947 200.777 37.32C200.457 37.224 200.132 37.1227 199.801 37.016C199.481 36.8987 199.188 36.7547 198.921 36.584C198.665 36.4133 198.452 36.2 198.281 35.944C198.121 35.688 198.041 35.368 198.041 34.984V34.952C198.041 34.6 198.11 34.28 198.249 33.992C198.388 33.6933 198.58 33.4427 198.825 33.24C199.081 33.0267 199.38 32.8667 199.721 32.76C200.073 32.6427 200.452 32.584 200.857 32.584C201.369 32.584 201.886 32.6693 202.409 32.84C202.932 33 203.406 33.2187 203.833 33.496L203.273 34.424C202.889 34.1787 202.484 33.9867 202.057 33.848C201.641 33.6987 201.23 33.624 200.825 33.624C200.334 33.624 199.945 33.7413 199.657 33.976C199.369 34.2 199.225 34.4827 199.225 34.824V34.856C199.225 35.048 199.284 35.2187 199.401 35.368C199.518 35.5067 199.673 35.6293 199.865 35.736C200.068 35.8427 200.297 35.9387 200.553 36.024C200.809 36.1093 201.076 36.1947 201.353 36.28C201.673 36.376 201.988 36.4827 202.297 36.6C202.617 36.7173 202.905 36.8667 203.161 37.048C203.417 37.2293 203.62 37.448 203.769 37.704C203.929 37.96 204.009 38.2747 204.009 38.648V38.68C204.009 39.0747 203.929 39.4267 203.769 39.736C203.62 40.0347 203.412 40.2907 203.145 40.504C202.889 40.7173 202.58 40.8827 202.217 41C201.865 41.1067 201.481 41.16 201.065 41.16ZM210.106 40.088C210.554 40.088 210.965 40.0027 211.338 39.832C211.711 39.6613 212.031 39.432 212.298 39.144C212.565 38.856 212.773 38.52 212.922 38.136C213.071 37.752 213.146 37.3413 213.146 36.904V36.872C213.146 36.424 213.066 36.008 212.906 35.624C212.757 35.2293 212.543 34.888 212.266 34.6C211.989 34.3013 211.663 34.0667 211.29 33.896C210.917 33.7253 210.511 33.64 210.074 33.64C209.626 33.64 209.215 33.7253 208.842 33.896C208.469 34.0667 208.149 34.296 207.882 34.584C207.626 34.872 207.423 35.2133 207.274 35.608C207.125 35.992 207.05 36.4027 207.05 36.84V36.872C207.05 37.32 207.125 37.7413 207.274 38.136C207.434 38.52 207.647 38.856 207.914 39.144C208.191 39.432 208.517 39.6613 208.89 39.832C209.263 40.0027 209.669 40.088 210.106 40.088ZM210.074 41.192C209.455 41.192 208.885 41.08 208.362 40.856C207.839 40.6213 207.386 40.312 207.002 39.928C206.618 39.5333 206.319 39.08 206.106 38.568C205.893 38.0453 205.786 37.4907 205.786 36.904V36.872C205.786 36.2853 205.893 35.7307 206.106 35.208C206.319 34.6853 206.618 34.2267 207.002 33.832C207.386 33.4373 207.839 33.128 208.362 32.904C208.895 32.6693 209.477 32.552 210.106 32.552C210.725 32.552 211.295 32.6693 211.818 32.904C212.351 33.128 212.81 33.4373 213.194 33.832C213.578 34.216 213.877 34.6693 214.09 35.192C214.303 35.704 214.41 36.2533 214.41 36.84V36.872C214.41 37.4587 214.298 38.0133 214.074 38.536C213.861 39.0587 213.562 39.5173 213.178 39.912C212.794 40.3067 212.335 40.6213 211.802 40.856C211.269 41.08 210.693 41.192 210.074 41.192ZM219.682 41.176C219.18 41.176 218.732 41.096 218.338 40.936C217.954 40.776 217.623 40.552 217.346 40.264C217.079 39.9653 216.871 39.6133 216.722 39.208C216.583 38.8027 216.514 38.3547 216.514 37.864V32.728H217.746V37.56C217.746 38.328 217.943 38.936 218.338 39.384C218.732 39.832 219.298 40.056 220.034 40.056C220.386 40.056 220.711 39.9973 221.01 39.88C221.319 39.752 221.58 39.576 221.794 39.352C222.018 39.1173 222.194 38.84 222.322 38.52C222.45 38.2 222.514 37.848 222.514 37.464V32.728H223.73V41H222.514V39.56C222.236 40.008 221.874 40.392 221.426 40.712C220.978 41.0213 220.396 41.176 219.682 41.176ZM226.501 32.728H227.733V34.168C228.01 33.72 228.373 33.3413 228.821 33.032C229.269 32.712 229.85 32.552 230.565 32.552C231.066 32.552 231.509 32.632 231.893 32.792C232.288 32.952 232.618 33.1813 232.885 33.48C233.162 33.768 233.37 34.1147 233.509 34.52C233.658 34.9253 233.733 35.3733 233.733 35.864V41H232.501V36.168C232.501 35.4 232.304 34.792 231.909 34.344C231.514 33.896 230.949 33.672 230.213 33.672C229.861 33.672 229.53 33.736 229.221 33.864C228.922 33.9813 228.661 34.1573 228.437 34.392C228.213 34.616 228.037 34.888 227.909 35.208C227.792 35.528 227.733 35.88 227.733 36.264V41H226.501V32.728ZM240.056 40.072C240.44 40.072 240.808 39.9973 241.16 39.848C241.523 39.688 241.843 39.4693 242.12 39.192C242.408 38.904 242.632 38.568 242.792 38.184C242.963 37.7893 243.048 37.352 243.048 36.872V36.84C243.048 36.36 242.963 35.928 242.792 35.544C242.632 35.1493 242.408 34.8133 242.12 34.536C241.843 34.2587 241.523 34.0453 241.16 33.896C240.808 33.736 240.44 33.656 240.056 33.656C239.651 33.656 239.272 33.7307 238.92 33.88C238.568 34.0187 238.259 34.2267 237.992 34.504C237.736 34.7707 237.528 35.1013 237.368 35.496C237.219 35.8907 237.144 36.3387 237.144 36.84V36.872C237.144 37.3627 237.219 37.8053 237.368 38.2C237.528 38.5947 237.742 38.9307 238.008 39.208C238.275 39.4853 238.584 39.6987 238.936 39.848C239.288 39.9973 239.662 40.072 240.056 40.072ZM239.832 41.176C239.331 41.176 238.846 41.08 238.376 40.888C237.907 40.696 237.486 40.4187 237.112 40.056C236.739 39.6827 236.44 39.2347 236.216 38.712C235.992 38.1787 235.88 37.5707 235.88 36.888V36.856C235.88 36.184 235.992 35.5813 236.216 35.048C236.44 34.5147 236.739 34.0667 237.112 33.704C237.486 33.3307 237.907 33.048 238.376 32.856C238.846 32.6533 239.331 32.552 239.832 32.552C240.216 32.552 240.568 32.6 240.888 32.696C241.208 32.792 241.496 32.92 241.752 33.08C242.008 33.24 242.238 33.4267 242.44 33.64C242.654 33.8533 242.84 34.0773 243 34.312V29.32H244.232V41H243V39.336C242.83 39.5813 242.638 39.816 242.424 40.04C242.222 40.264 241.992 40.4613 241.736 40.632C241.48 40.8027 241.192 40.936 240.872 41.032C240.563 41.128 240.216 41.176 239.832 41.176Z" fill="white"/>
</g>
<g clip-path="url(#clip0)">
<path d="M52.0801 32.0804L58.9393 38.9396" stroke="white" stroke-width="1.5" stroke-miterlimit="10"/>
<path d="M52.0801 38.9396L58.9393 32.0804" stroke="white" stroke-width="1.5" stroke-miterlimit="10"/>
</g>
<rect x="31.5" y="31.5" width="7" height="9" fill="white" stroke="white"/>
<path d="M38.5 40.7397V31.2603L47.5 24.9603V47.0397L38.5 40.7397Z" fill="white" stroke="white"/>
<defs>
<filter id="filter0_d" x="55.4785" y="13.3199" width="208.754" height="51.872" filterUnits="userSpaceOnUse" color-interpolation-filters="sRGB">
<feFlood flood-opacity="0" result="BackgroundImageFix"/>
<feColorMatrix in="SourceAlpha" type="matrix" values="0 0 0 0 0 0 0 0 0 0 0 0 0 0 0 0 0 0 127 0"/>
<feOffset dy="4"/>
<feGaussianBlur stdDeviation="10"/>
<feColorMatrix type="matrix" values="0 0 0 0 0 0 0 0 0 0 0 0 0 0 0 0 0 0 1 0"/>
<feBlend mode="normal" in2="BackgroundImageFix" result="effect1_dropShadow"/>
<feBlend mode="normal" in="SourceGraphic" in2="effect1_dropShadow" result="shape"/>
</filter>
<clipPath id="clip0">
<rect width="7" height="7" fill="white" transform="translate(52 32)"/>
</clipPath>
</defs>
</svg>
