<svg width="286" height="93" viewBox="0 0 286 93" fill="none" xmlns="http://www.w3.org/2000/svg">
<g filter="url(#filter0_d)">
<path d="M45.4162 48.16C44.5202 48.16 43.6989 48.016 42.9522 47.728C42.2162 47.4293 41.5122 46.976 40.8402 46.368L41.6242 45.44C42.2109 45.9733 42.8029 46.3733 43.4002 46.64C43.9975 46.896 44.6855 47.024 45.4642 47.024C46.2215 47.024 46.8242 46.848 47.2722 46.496C47.7309 46.1333 47.9602 45.6747 47.9602 45.12V45.088C47.9602 44.832 47.9175 44.6027 47.8322 44.4C47.7469 44.1867 47.5975 43.9947 47.3842 43.824C47.1709 43.6533 46.8722 43.4987 46.4882 43.36C46.1149 43.2213 45.6349 43.088 45.0482 42.96C44.4082 42.8213 43.8482 42.6613 43.3682 42.48C42.8989 42.2987 42.5095 42.08 42.2002 41.824C41.8909 41.568 41.6615 41.2693 41.5122 40.928C41.3629 40.5867 41.2882 40.1867 41.2882 39.728V39.696C41.2882 39.2587 41.3789 38.8533 41.5602 38.48C41.7415 38.1067 41.9975 37.7867 42.3282 37.52C42.6589 37.2427 43.0482 37.0293 43.4962 36.88C43.9442 36.72 44.4349 36.64 44.9682 36.64C45.7895 36.64 46.5042 36.7573 47.1122 36.992C47.7309 37.216 48.3282 37.5573 48.9042 38.016L48.1682 38.992C47.6455 38.5653 47.1175 38.256 46.5842 38.064C46.0615 37.872 45.5122 37.776 44.9362 37.776C44.2002 37.776 43.6189 37.952 43.1922 38.304C42.7655 38.6453 42.5522 39.072 42.5522 39.584V39.616C42.5522 39.8827 42.5949 40.1227 42.6802 40.336C42.7655 40.5387 42.9202 40.7307 43.1442 40.912C43.3682 41.0827 43.6775 41.2427 44.0722 41.392C44.4669 41.5307 44.9735 41.664 45.5922 41.792C46.8402 42.0693 47.7575 42.4533 48.3442 42.944C48.9415 43.4347 49.2402 44.1067 49.2402 44.96V44.992C49.2402 45.472 49.1442 45.9093 48.9522 46.304C48.7602 46.688 48.4935 47.0187 48.1522 47.296C47.8215 47.5733 47.4215 47.7867 46.9522 47.936C46.4829 48.0853 45.9709 48.16 45.4162 48.16ZM55.3306 48.192C54.7226 48.192 54.1572 48.08 53.6346 47.856C53.1226 47.6213 52.6746 47.312 52.2906 46.928C51.9172 46.5333 51.6239 46.0747 51.4106 45.552C51.1972 45.0293 51.0906 44.48 51.0906 43.904V43.872C51.0906 43.2853 51.1972 42.7307 51.4106 42.208C51.6239 41.6853 51.9172 41.2267 52.2906 40.832C52.6746 40.4373 53.1226 40.128 53.6346 39.904C54.1572 39.6693 54.7226 39.552 55.3306 39.552C55.7252 39.552 56.0826 39.5893 56.4026 39.664C56.7226 39.7387 57.0159 39.8453 57.2826 39.984C57.5492 40.112 57.7946 40.2667 58.0186 40.448C58.2426 40.6293 58.4506 40.8213 58.6426 41.024L57.8266 41.888C57.4959 41.5467 57.1332 41.2533 56.7386 41.008C56.3546 40.7627 55.8799 40.64 55.3146 40.64C54.8986 40.64 54.5092 40.7253 54.1466 40.896C53.7839 41.056 53.4692 41.28 53.2026 41.568C52.9359 41.856 52.7279 42.1973 52.5786 42.592C52.4292 42.976 52.3546 43.392 52.3546 43.84V43.872C52.3546 44.32 52.4292 44.7413 52.5786 45.136C52.7386 45.52 52.9519 45.8613 53.2186 46.16C53.4959 46.448 53.8159 46.6773 54.1786 46.848C54.5519 47.008 54.9572 47.088 55.3946 47.088C55.9279 47.088 56.3972 46.9707 56.8026 46.736C57.2186 46.5013 57.5919 46.208 57.9226 45.856L58.7066 46.592C58.2906 47.0613 57.8159 47.4453 57.2826 47.744C56.7599 48.0427 56.1092 48.192 55.3306 48.192ZM60.7432 39.728H61.9752V41.888C62.1245 41.5467 62.3112 41.232 62.5352 40.944C62.7592 40.656 63.0152 40.4107 63.3032 40.208C63.5912 39.9947 63.9059 39.8347 64.2472 39.728C64.5885 39.6213 64.9565 39.5733 65.3512 39.584V40.912H65.2552C64.8072 40.912 64.3805 40.992 63.9752 41.152C63.5805 41.312 63.2339 41.552 62.9352 41.872C62.6365 42.192 62.4019 42.592 62.2312 43.072C62.0605 43.5413 61.9752 44.0853 61.9752 44.704V48H60.7432V39.728ZM71.0356 47.088C71.4836 47.088 71.8942 47.0027 72.2676 46.832C72.6409 46.6613 72.9609 46.432 73.2276 46.144C73.4942 45.856 73.7022 45.52 73.8516 45.136C74.0009 44.752 74.0756 44.3413 74.0756 43.904V43.872C74.0756 43.424 73.9956 43.008 73.8356 42.624C73.6862 42.2293 73.4729 41.888 73.1956 41.6C72.9182 41.3013 72.5929 41.0667 72.2196 40.896C71.8462 40.7253 71.4409 40.64 71.0036 40.64C70.5556 40.64 70.1449 40.7253 69.7716 40.896C69.3982 41.0667 69.0782 41.296 68.8116 41.584C68.5556 41.872 68.3529 42.2133 68.2036 42.608C68.0542 42.992 67.9796 43.4027 67.9796 43.84V43.872C67.9796 44.32 68.0542 44.7413 68.2036 45.136C68.3636 45.52 68.5769 45.856 68.8436 46.144C69.1209 46.432 69.4462 46.6613 69.8196 46.832C70.1929 47.0027 70.5982 47.088 71.0356 47.088ZM71.0036 48.192C70.3849 48.192 69.8142 48.08 69.2916 47.856C68.7689 47.6213 68.3156 47.312 67.9316 46.928C67.5476 46.5333 67.2489 46.08 67.0356 45.568C66.8222 45.0453 66.7156 44.4907 66.7156 43.904V43.872C66.7156 43.2853 66.8222 42.7307 67.0356 42.208C67.2489 41.6853 67.5476 41.2267 67.9316 40.832C68.3156 40.4373 68.7689 40.128 69.2916 39.904C69.8249 39.6693 70.4062 39.552 71.0356 39.552C71.6542 39.552 72.2249 39.6693 72.7476 39.904C73.2809 40.128 73.7396 40.4373 74.1236 40.832C74.5076 41.216 74.8062 41.6693 75.0196 42.192C75.2329 42.704 75.3396 43.2533 75.3396 43.84V43.872C75.3396 44.4587 75.2276 45.0133 75.0036 45.536C74.7902 46.0587 74.4916 46.5173 74.1076 46.912C73.7236 47.3067 73.2649 47.6213 72.7316 47.856C72.1982 48.08 71.6222 48.192 71.0036 48.192ZM77.6833 36.32H78.9153V48H77.6833V36.32ZM81.8864 36.32H83.1184V48H81.8864V36.32ZM94.4704 47.072C94.8544 47.072 95.2224 46.9973 95.5744 46.848C95.9371 46.688 96.2571 46.4693 96.5344 46.192C96.8224 45.904 97.0464 45.568 97.2064 45.184C97.3771 44.7893 97.4624 44.352 97.4624 43.872V43.84C97.4624 43.36 97.3771 42.928 97.2064 42.544C97.0464 42.1493 96.8224 41.8133 96.5344 41.536C96.2571 41.2587 95.9371 41.0453 95.5744 40.896C95.2224 40.736 94.8544 40.656 94.4704 40.656C94.0651 40.656 93.6864 40.7307 93.3344 40.88C92.9824 41.0187 92.6731 41.2267 92.4064 41.504C92.1504 41.7707 91.9424 42.1013 91.7824 42.496C91.6331 42.8907 91.5584 43.3387 91.5584 43.84V43.872C91.5584 44.3627 91.6331 44.8053 91.7824 45.2C91.9424 45.5947 92.1558 45.9307 92.4224 46.208C92.6891 46.4853 92.9984 46.6987 93.3504 46.848C93.7024 46.9973 94.0758 47.072 94.4704 47.072ZM94.2464 48.176C93.7451 48.176 93.2598 48.08 92.7904 47.888C92.3211 47.696 91.8998 47.4187 91.5264 47.056C91.1531 46.6827 90.8544 46.2347 90.6304 45.712C90.4064 45.1787 90.2944 44.5707 90.2944 43.888V43.856C90.2944 43.184 90.4064 42.5813 90.6304 42.048C90.8544 41.5147 91.1531 41.0667 91.5264 40.704C91.8998 40.3307 92.3211 40.048 92.7904 39.856C93.2598 39.6533 93.7451 39.552 94.2464 39.552C94.6304 39.552 94.9824 39.6 95.3024 39.696C95.6224 39.792 95.9104 39.92 96.1664 40.08C96.4224 40.24 96.6518 40.4267 96.8544 40.64C97.0678 40.8533 97.2544 41.0773 97.4144 41.312V36.32H98.6464V48H97.4144V46.336C97.2438 46.5813 97.0518 46.816 96.8384 47.04C96.6358 47.264 96.4064 47.4613 96.1504 47.632C95.8944 47.8027 95.6064 47.936 95.2864 48.032C94.9771 48.128 94.6304 48.176 94.2464 48.176ZM105.207 47.088C105.655 47.088 106.066 47.0027 106.439 46.832C106.813 46.6613 107.133 46.432 107.399 46.144C107.666 45.856 107.874 45.52 108.023 45.136C108.173 44.752 108.247 44.3413 108.247 43.904V43.872C108.247 43.424 108.167 43.008 108.007 42.624C107.858 42.2293 107.645 41.888 107.367 41.6C107.09 41.3013 106.765 41.0667 106.391 40.896C106.018 40.7253 105.613 40.64 105.175 40.64C104.727 40.64 104.317 40.7253 103.943 40.896C103.57 41.0667 103.25 41.296 102.983 41.584C102.727 41.872 102.525 42.2133 102.375 42.608C102.226 42.992 102.151 43.4027 102.151 43.84V43.872C102.151 44.32 102.226 44.7413 102.375 45.136C102.535 45.52 102.749 45.856 103.015 46.144C103.293 46.432 103.618 46.6613 103.991 46.832C104.365 47.0027 104.77 47.088 105.207 47.088ZM105.175 48.192C104.557 48.192 103.986 48.08 103.463 47.856C102.941 47.6213 102.487 47.312 102.103 46.928C101.719 46.5333 101.421 46.08 101.207 45.568C100.994 45.0453 100.887 44.4907 100.887 43.904V43.872C100.887 43.2853 100.994 42.7307 101.207 42.208C101.421 41.6853 101.719 41.2267 102.103 40.832C102.487 40.4373 102.941 40.128 103.463 39.904C103.997 39.6693 104.578 39.552 105.207 39.552C105.826 39.552 106.397 39.6693 106.919 39.904C107.453 40.128 107.911 40.4373 108.295 40.832C108.679 41.216 108.978 41.6693 109.191 42.192C109.405 42.704 109.511 43.2533 109.511 43.84V43.872C109.511 44.4587 109.399 45.0133 109.175 45.536C108.962 46.0587 108.663 46.5173 108.279 46.912C107.895 47.3067 107.437 47.6213 106.903 47.856C106.37 48.08 105.794 48.192 105.175 48.192ZM111.039 39.728H112.351L114.527 46.368L116.751 39.696H117.775L120.015 46.368L122.191 39.728H123.471L120.559 48.064H119.487L117.263 41.536L115.023 48.064H113.935L111.039 39.728ZM125.524 39.728H126.756V41.168C127.034 40.72 127.396 40.3413 127.844 40.032C128.292 39.712 128.874 39.552 129.588 39.552C130.09 39.552 130.532 39.632 130.916 39.792C131.311 39.952 131.642 40.1813 131.908 40.48C132.186 40.768 132.394 41.1147 132.532 41.52C132.682 41.9253 132.756 42.3733 132.756 42.864V48H131.524V43.168C131.524 42.4 131.327 41.792 130.932 41.344C130.538 40.896 129.972 40.672 129.236 40.672C128.884 40.672 128.554 40.736 128.244 40.864C127.946 40.9813 127.684 41.1573 127.46 41.392C127.236 41.616 127.06 41.888 126.932 42.208C126.815 42.528 126.756 42.88 126.756 43.264V48H125.524V39.728ZM142.949 48.144C142.618 48.144 142.309 48.1013 142.021 48.016C141.733 47.9307 141.482 47.7973 141.269 47.616C141.066 47.424 140.906 47.1787 140.789 46.88C140.671 46.5813 140.613 46.224 140.613 45.808V40.816H139.461V39.728H140.613V37.232H141.845V39.728H144.469V40.816H141.845V45.648C141.845 46.16 141.973 46.5173 142.229 46.72C142.485 46.9227 142.821 47.024 143.237 47.024C143.45 47.024 143.647 47.0027 143.829 46.96C144.021 46.9173 144.223 46.8427 144.437 46.736V47.792C144.223 47.9093 143.994 47.9947 143.749 48.048C143.514 48.112 143.247 48.144 142.949 48.144ZM150.457 47.088C150.905 47.088 151.316 47.0027 151.689 46.832C152.063 46.6613 152.383 46.432 152.649 46.144C152.916 45.856 153.124 45.52 153.273 45.136C153.423 44.752 153.497 44.3413 153.497 43.904V43.872C153.497 43.424 153.417 43.008 153.257 42.624C153.108 42.2293 152.895 41.888 152.617 41.6C152.34 41.3013 152.015 41.0667 151.641 40.896C151.268 40.7253 150.863 40.64 150.425 40.64C149.977 40.64 149.567 40.7253 149.193 40.896C148.82 41.0667 148.5 41.296 148.233 41.584C147.977 41.872 147.775 42.2133 147.625 42.608C147.476 42.992 147.401 43.4027 147.401 43.84V43.872C147.401 44.32 147.476 44.7413 147.625 45.136C147.785 45.52 147.999 45.856 148.265 46.144C148.543 46.432 148.868 46.6613 149.241 46.832C149.615 47.0027 150.02 47.088 150.457 47.088ZM150.425 48.192C149.807 48.192 149.236 48.08 148.713 47.856C148.191 47.6213 147.737 47.312 147.353 46.928C146.969 46.5333 146.671 46.08 146.457 45.568C146.244 45.0453 146.137 44.4907 146.137 43.904V43.872C146.137 43.2853 146.244 42.7307 146.457 42.208C146.671 41.6853 146.969 41.2267 147.353 40.832C147.737 40.4373 148.191 40.128 148.713 39.904C149.247 39.6693 149.828 39.552 150.457 39.552C151.076 39.552 151.647 39.6693 152.169 39.904C152.703 40.128 153.161 40.4373 153.545 40.832C153.929 41.216 154.228 41.6693 154.441 42.192C154.655 42.704 154.761 43.2533 154.761 43.84V43.872C154.761 44.4587 154.649 45.0133 154.425 45.536C154.212 46.0587 153.913 46.5173 153.529 46.912C153.145 47.3067 152.687 47.6213 152.153 47.856C151.62 48.08 151.044 48.192 150.425 48.192ZM161.902 36.32H163.134V48H161.902V36.32ZM172.057 43.376C172.025 43.0027 171.945 42.6507 171.817 42.32C171.689 41.9787 171.513 41.68 171.289 41.424C171.076 41.168 170.809 40.9653 170.489 40.816C170.18 40.6667 169.823 40.592 169.417 40.592C169.065 40.592 168.735 40.6613 168.425 40.8C168.116 40.9387 167.844 41.136 167.609 41.392C167.375 41.6373 167.177 41.9307 167.017 42.272C166.868 42.6133 166.772 42.9813 166.729 43.376H172.057ZM166.729 44.368C166.772 44.8053 166.879 45.1947 167.049 45.536C167.22 45.8773 167.439 46.1653 167.705 46.4C167.972 46.6347 168.271 46.816 168.601 46.944C168.932 47.0613 169.279 47.12 169.641 47.12C170.217 47.12 170.708 47.0133 171.113 46.8C171.529 46.5867 171.908 46.304 172.249 45.952L173.017 46.64C172.601 47.1093 172.127 47.488 171.593 47.776C171.06 48.0533 170.399 48.192 169.609 48.192C169.044 48.192 168.511 48.0907 168.009 47.888C167.508 47.6747 167.071 47.3813 166.697 47.008C166.324 46.624 166.025 46.1653 165.801 45.632C165.588 45.0987 165.481 44.512 165.481 43.872C165.481 43.2747 165.577 42.7147 165.769 42.192C165.972 41.6587 166.249 41.2 166.601 40.816C166.953 40.4213 167.369 40.112 167.849 39.888C168.34 39.664 168.873 39.552 169.449 39.552C170.057 39.552 170.601 39.6693 171.081 39.904C171.561 40.128 171.967 40.4373 172.297 40.832C172.628 41.2267 172.879 41.6907 173.049 42.224C173.22 42.7573 173.305 43.328 173.305 43.936C173.305 43.9893 173.305 44.0533 173.305 44.128C173.305 44.192 173.3 44.272 173.289 44.368H166.729ZM178.166 47.184C178.55 47.184 178.907 47.1307 179.238 47.024C179.569 46.9173 179.857 46.768 180.102 46.576C180.358 46.3733 180.555 46.1387 180.694 45.872C180.843 45.5947 180.918 45.2907 180.918 44.96V44.192C180.609 44.1067 180.257 44.0267 179.862 43.952C179.467 43.8773 179.014 43.84 178.502 43.84C177.734 43.84 177.137 43.9947 176.71 44.304C176.294 44.6027 176.086 45.0027 176.086 45.504V45.536C176.086 45.792 176.139 46.0267 176.246 46.24C176.363 46.4427 176.518 46.6133 176.71 46.752C176.902 46.8907 177.121 46.9973 177.366 47.072C177.622 47.1467 177.889 47.184 178.166 47.184ZM177.926 48.176C177.542 48.176 177.163 48.1227 176.79 48.016C176.417 47.9093 176.086 47.7493 175.798 47.536C175.51 47.312 175.275 47.04 175.094 46.72C174.923 46.4 174.838 46.0267 174.838 45.6V45.568C174.838 45.12 174.923 44.7307 175.094 44.4C175.265 44.0587 175.505 43.776 175.814 43.552C176.134 43.328 176.507 43.1573 176.934 43.04C177.371 42.9227 177.851 42.864 178.374 42.864C178.907 42.864 179.366 42.896 179.75 42.96C180.145 43.024 180.529 43.1093 180.902 43.216V42.96C180.902 42.224 180.689 41.6693 180.262 41.296C179.835 40.912 179.233 40.72 178.454 40.72C177.963 40.72 177.515 40.7733 177.11 40.88C176.715 40.9867 176.326 41.1307 175.942 41.312L175.574 40.304C176.033 40.0907 176.497 39.92 176.966 39.792C177.435 39.664 177.974 39.6 178.582 39.6C179.755 39.6 180.646 39.904 181.254 40.512C181.83 41.088 182.118 41.8987 182.118 42.944V48H180.902V46.768C180.614 47.1413 180.225 47.472 179.734 47.76C179.254 48.0373 178.651 48.176 177.926 48.176ZM184.728 39.728H185.96V41.888C186.109 41.5467 186.296 41.232 186.52 40.944C186.744 40.656 187 40.4107 187.288 40.208C187.576 39.9947 187.89 39.8347 188.232 39.728C188.573 39.6213 188.941 39.5733 189.336 39.584V40.912H189.24C188.792 40.912 188.365 40.992 187.96 41.152C187.565 41.312 187.218 41.552 186.92 41.872C186.621 42.192 186.386 42.592 186.216 43.072C186.045 43.5413 185.96 44.0853 185.96 44.704V48H184.728V39.728ZM191.212 39.728H192.444V41.168C192.721 40.72 193.084 40.3413 193.532 40.032C193.98 39.712 194.561 39.552 195.276 39.552C195.777 39.552 196.22 39.632 196.604 39.792C196.999 39.952 197.329 40.1813 197.596 40.48C197.873 40.768 198.081 41.1147 198.22 41.52C198.369 41.9253 198.444 42.3733 198.444 42.864V48H197.212V43.168C197.212 42.4 197.015 41.792 196.62 41.344C196.225 40.896 195.66 40.672 194.924 40.672C194.572 40.672 194.241 40.736 193.932 40.864C193.633 40.9813 193.372 41.1573 193.148 41.392C192.924 41.616 192.748 41.888 192.62 42.208C192.503 42.528 192.444 42.88 192.444 43.264V48H191.212V39.728ZM205.868 39.728H207.1V41.12C207.239 40.9173 207.388 40.72 207.548 40.528C207.719 40.336 207.911 40.1707 208.124 40.032C208.338 39.8827 208.578 39.7653 208.844 39.68C209.111 39.5947 209.42 39.552 209.772 39.552C210.444 39.552 210.999 39.712 211.436 40.032C211.874 40.3413 212.204 40.7307 212.428 41.2C212.578 40.976 212.743 40.7627 212.924 40.56C213.116 40.3573 213.33 40.1813 213.564 40.032C213.799 39.8827 214.06 39.7653 214.348 39.68C214.647 39.5947 214.978 39.552 215.34 39.552C216.3 39.552 217.052 39.8507 217.596 40.448C218.14 41.0347 218.412 41.8453 218.412 42.88V48H217.18V43.168C217.18 42.368 216.988 41.7547 216.604 41.328C216.231 40.8907 215.708 40.672 215.036 40.672C214.727 40.672 214.434 40.7307 214.156 40.848C213.879 40.9547 213.634 41.12 213.42 41.344C213.218 41.5573 213.052 41.824 212.924 42.144C212.807 42.464 212.748 42.8267 212.748 43.232V48H211.532V43.136C211.532 42.3573 211.34 41.7547 210.956 41.328C210.583 40.8907 210.066 40.672 209.404 40.672C209.074 40.672 208.77 40.736 208.492 40.864C208.215 40.992 207.97 41.1733 207.756 41.408C207.554 41.6427 207.394 41.92 207.276 42.24C207.159 42.5493 207.1 42.896 207.1 43.28V48H205.868V39.728ZM224.895 47.088C225.343 47.088 225.754 47.0027 226.127 46.832C226.5 46.6613 226.82 46.432 227.087 46.144C227.354 45.856 227.562 45.52 227.711 45.136C227.86 44.752 227.935 44.3413 227.935 43.904V43.872C227.935 43.424 227.855 43.008 227.695 42.624C227.546 42.2293 227.332 41.888 227.055 41.6C226.778 41.3013 226.452 41.0667 226.079 40.896C225.706 40.7253 225.3 40.64 224.863 40.64C224.415 40.64 224.004 40.7253 223.631 40.896C223.258 41.0667 222.938 41.296 222.671 41.584C222.415 41.872 222.212 42.2133 222.063 42.608C221.914 42.992 221.839 43.4027 221.839 43.84V43.872C221.839 44.32 221.914 44.7413 222.063 45.136C222.223 45.52 222.436 45.856 222.703 46.144C222.98 46.432 223.306 46.6613 223.679 46.832C224.052 47.0027 224.458 47.088 224.895 47.088ZM224.863 48.192C224.244 48.192 223.674 48.08 223.151 47.856C222.628 47.6213 222.175 47.312 221.791 46.928C221.407 46.5333 221.108 46.08 220.895 45.568C220.682 45.0453 220.575 44.4907 220.575 43.904V43.872C220.575 43.2853 220.682 42.7307 220.895 42.208C221.108 41.6853 221.407 41.2267 221.791 40.832C222.175 40.4373 222.628 40.128 223.151 39.904C223.684 39.6693 224.266 39.552 224.895 39.552C225.514 39.552 226.084 39.6693 226.607 39.904C227.14 40.128 227.599 40.4373 227.983 40.832C228.367 41.216 228.666 41.6693 228.879 42.192C229.092 42.704 229.199 43.2533 229.199 43.84V43.872C229.199 44.4587 229.087 45.0133 228.863 45.536C228.65 46.0587 228.351 46.5173 227.967 46.912C227.583 47.3067 227.124 47.6213 226.591 47.856C226.058 48.08 225.482 48.192 224.863 48.192ZM231.431 39.728H232.663V41.888C232.812 41.5467 232.999 41.232 233.223 40.944C233.447 40.656 233.703 40.4107 233.991 40.208C234.279 39.9947 234.593 39.8347 234.935 39.728C235.276 39.6213 235.644 39.5733 236.039 39.584V40.912H235.943C235.495 40.912 235.068 40.992 234.663 41.152C234.268 41.312 233.921 41.552 233.623 41.872C233.324 42.192 233.089 42.592 232.919 43.072C232.748 43.5413 232.663 44.0853 232.663 44.704V48H231.431V39.728ZM243.979 43.376C243.947 43.0027 243.867 42.6507 243.739 42.32C243.611 41.9787 243.435 41.68 243.211 41.424C242.998 41.168 242.731 40.9653 242.411 40.816C242.102 40.6667 241.744 40.592 241.339 40.592C240.987 40.592 240.656 40.6613 240.347 40.8C240.038 40.9387 239.766 41.136 239.531 41.392C239.296 41.6373 239.099 41.9307 238.939 42.272C238.79 42.6133 238.694 42.9813 238.651 43.376H243.979ZM238.651 44.368C238.694 44.8053 238.8 45.1947 238.971 45.536C239.142 45.8773 239.36 46.1653 239.627 46.4C239.894 46.6347 240.192 46.816 240.523 46.944C240.854 47.0613 241.2 47.12 241.563 47.12C242.139 47.12 242.63 47.0133 243.035 46.8C243.451 46.5867 243.83 46.304 244.171 45.952L244.939 46.64C244.523 47.1093 244.048 47.488 243.515 47.776C242.982 48.0533 242.32 48.192 241.531 48.192C240.966 48.192 240.432 48.0907 239.931 47.888C239.43 47.6747 238.992 47.3813 238.619 47.008C238.246 46.624 237.947 46.1653 237.723 45.632C237.51 45.0987 237.403 44.512 237.403 43.872C237.403 43.2747 237.499 42.7147 237.691 42.192C237.894 41.6587 238.171 41.2 238.523 40.816C238.875 40.4213 239.291 40.112 239.771 39.888C240.262 39.664 240.795 39.552 241.371 39.552C241.979 39.552 242.523 39.6693 243.003 39.904C243.483 40.128 243.888 40.4373 244.219 40.832C244.55 41.2267 244.8 41.6907 244.971 42.224C245.142 42.7573 245.227 43.328 245.227 43.936C245.227 43.9893 245.227 44.0533 245.227 44.128C245.227 44.192 245.222 44.272 245.211 44.368H238.651Z" fill="white"/>
</g>
<path d="M124 67L139 87L154 67" stroke="white"/>
<defs>
<filter id="filter0_d" x="0.839844" y="0.320068" width="284.387" height="91.872" filterUnits="userSpaceOnUse" color-interpolation-filters="sRGB">
<feFlood flood-opacity="0" result="BackgroundImageFix"/>
<feColorMatrix in="SourceAlpha" type="matrix" values="0 0 0 0 0 0 0 0 0 0 0 0 0 0 0 0 0 0 127 0"/>
<feOffset dy="4"/>
<feGaussianBlur stdDeviation="20"/>
<feColorMatrix type="matrix" values="0 0 0 0 0 0 0 0 0 0 0 0 0 0 0 0 0 0 0.5 0"/>
<feBlend mode="normal" in2="BackgroundImageFix" result="effect1_dropShadow"/>
<feBlend mode="normal" in="SourceGraphic" in2="effect1_dropShadow" result="shape"/>
</filter>
</defs>
</svg>
