<?xml version="1.0" encoding="UTF-8"?>
<svg width="431px" height="78px" viewBox="0 0 431 78" version="1.1" xmlns="http://www.w3.org/2000/svg" xmlns:xlink="http://www.w3.org/1999/xlink">
    <!-- Generator: Sketch 52.5 (67469) - http://www.bohemiancoding.com/sketch -->
    <title>Xshore-logo-3</title>
    <desc>Created with Sketch.</desc>
    <g id="Page-1" stroke="none" stroke-width="1" fill="none" fill-rule="evenodd">
        <g id="Xshore-logo-3" fill="#4A4840">
            <path d="M41.71,41.33 L32.25,31.88 L30.25,29.94 L39.56,20.63 L35.84,16.9 L26.48,26.27 L23.77,23.63 C19.51,19.38 18.71,17.2 18.71,14.63 C18.71,9.44956905 22.909569,5.25 28.09,5.25 C33.270431,5.25 37.47,9.44956905 37.47,14.63 L42.74,14.63 C42.5324517,6.68534458 36.032366,0.352851146 28.085,0.352851146 C20.137634,0.352851146 13.6375483,6.68534458 13.43,14.63 C13.43,19.08 15.23,22.53 20.07,27.37 L22.75,30 L20.81,31.94 L6,17.09 L2.24,20.82 L17.08,35.66 L0,52.74 L3.73,56.47 L20.81,39.39 L38.09,56.66 L41.81,52.94 L24.54,35.66 L26.54,33.66 L28.54,35.66 L38,45.06 C42.78,49.84 43.39,53.68 43.39,56.5 C43.39,64.8394997 36.6294997,71.6 28.29,71.6 C19.9505003,71.6 13.19,64.8394997 13.19,56.5 L7.9,56.5 C7.9,67.7500404 17.0199596,76.87 28.27,76.87 C39.5200404,76.87 48.64,67.7500404 48.64,56.5 C48.64,50.88 46.44,46.06 41.71,41.33" id="Path"></path>
            <polygon id="Path" points="102.49 21.69 97.82 14.96 93.12 21.69 89.54 21.69 96.02 12.65 89.8 3.92 93.48 3.92 97.89 10.29 102.34 3.92 105.92 3.92 99.72 12.6 106.17 21.69"></polygon>
            <path d="M135,11.38 C138.76,12.3 140.71,13.64 140.71,16.61 C140.71,19.96 138.1,21.94 134.37,21.94 C131.646462,21.9383624 129.02037,20.9264081 127,19.1 L128.88,16.87 C130.385332,18.329775 132.393237,19.1565593 134.49,19.18 C136.42,19.18 137.64,18.29 137.64,16.92 C137.64,15.55 136.93,14.92 133.64,14.17 C129.86,13.26 127.72,12.17 127.72,8.84 C127.72,5.74 130.26,3.66 133.79,3.66 C136.138443,3.61289131 138.42627,4.40742359 140.24,5.9 L138.56,8.26 C137.196652,7.13937523 135.503544,6.49655617 133.74,6.43 C131.91,6.43 130.85,7.37 130.85,8.56 C130.85,9.96 131.66,10.56 135.06,11.38" id="Path"></path>
            <polygon id="Path" points="153.13 14.2 153.13 21.69 150 21.69 150 3.92 153.13 3.92 153.13 11.3 161.61 11.3 161.61 3.92 164.73 3.92 164.73 21.69 161.61 21.69 161.61 14.2"></polygon>
            <path d="M183.36,22 C180.898601,22.074285 178.514265,21.1367675 176.762639,19.4059264 C175.011013,17.6750854 174.045101,15.3021108 174.09,12.84 C174.240479,7.82430901 178.342874,3.83242028 183.360804,3.81892397 C188.378734,3.80542765 192.502543,7.77519104 192.68,12.79 C192.707778,15.2602488 191.731145,17.6358632 189.973966,19.3723029 C188.216787,21.1087426 185.829745,22.0571029 183.36,22 M183.36,6.49 C181.715332,6.48794281 180.141922,7.16109719 179.007667,8.35206427 C177.873413,9.54303135 177.277765,11.1473884 177.36,12.79 C177.289581,14.4342187 177.887608,16.0369426 179.017879,17.2331458 C180.14815,18.4293491 181.714432,19.1171862 183.36,19.14 C185.004668,19.1420572 186.578078,18.4689028 187.712333,17.2779357 C188.846587,16.0869686 189.442235,14.4826116 189.36,12.84 C189.430419,11.1957813 188.832392,9.59305737 187.702121,8.39685415 C186.57185,7.20065094 185.005568,6.5128138 183.36,6.49" id="Shape" fill-rule="nonzero"></path>
            <path d="M213.44,21.69 L209.07,15.49 L205.16,15.49 L205.16,21.69 L202,21.69 L202,3.92 L210,3.92 C214.09,3.92 216.6,6.07 216.6,9.55 C216.718683,12.1755312 214.898823,14.4928772 212.32,15 L217.12,21.73 L213.44,21.69 Z M209.71,6.76 L205.16,6.76 L205.16,12.76 L209.73,12.76 C211.97,12.76 213.39,11.59 213.39,9.76 C213.39,7.93 212.02,6.76 209.71,6.76 Z" id="Shape" fill-rule="nonzero"></path>
            <polygon id="Path" points="239.15 6.71 229.1 6.71 229.1 11.33 238.01 11.33 238.01 14.12 229.1 14.12 229.1 18.9 239.28 18.9 239.28 21.69 225.97 21.69 225.97 3.92 239.15 3.92"></polygon>
            <path d="M96.73,46.31 C98.1130276,46.3198122 99.4341831,45.7374847 100.36,44.71 L102.16,46.31 C100.830097,47.9635374 98.8009399,48.8966533 96.68,48.83 C94.8179133,48.8849462 93.017244,48.1609878 91.711414,46.8323817 C90.405584,45.5037756 89.7128669,43.6908584 89.8,41.83 C89.8,37.97 92.51,34.83 96.35,34.83 C100.61,34.83 102.77,38.18 102.77,42.06 C102.77,42.34 102.77,42.6 102.77,42.9 L92.87,42.9 C93.0541264,44.8762638 94.7463011,46.3667804 96.73,46.3 L96.73,46.31 Z M99.73,40.87 C99.53,38.87 98.36,37.34 96.33,37.34 C94.45,37.34 93.13,38.79 92.85,40.87 L99.73,40.87 Z" id="Shape" fill-rule="nonzero"></path>
            <polygon id="Path" points="124.98 33.54 114.93 33.54 114.93 38.16 123.84 38.16 123.84 40.96 114.93 40.96 114.93 45.73 125.11 45.73 125.11 48.52 111.8 48.52 111.8 30.75 124.98 30.75"></polygon>
            <polygon id="Path" points="134.39 30.75 137.52 30.75 137.52 45.68 146.86 45.68 146.86 48.52 134.39 48.52"></polygon>
            <polygon id="Path" points="168.87 33.54 158.81 33.54 158.81 38.16 167.72 38.16 167.72 40.96 158.81 40.96 158.81 45.73 169 45.73 169 48.52 155.69 48.52 155.69 30.75 168.87 30.75"></polygon>
            <path d="M186.53,48.83 C184.113303,48.8304312 181.797973,47.8589191 180.105173,46.1341435 C178.412372,44.409368 177.484351,42.0762658 177.53,39.66 C177.472299,37.2070967 178.418551,34.8369666 180.149715,33.0982507 C181.88088,31.3595347 184.246869,30.402976 186.7,30.45 C189.318161,30.3415914 191.860344,31.343938 193.7,33.21 L191.7,35.52 C190.397735,34.1417831 188.595818,33.3453361 186.7,33.31 C183.3,33.31 180.84,36.11 180.84,39.61 C180.84,43.11 183.23,46 186.63,46 C188.580817,45.9757479 190.433003,45.1384584 191.74,43.69 L193.74,45.69 C191.93299,47.7712764 189.284853,48.9282293 186.53,48.84" id="Path"></path>
            <polygon id="Path" points="210.11 48.52 206.97 48.52 206.97 33.64 201.33 33.64 201.33 30.75 215.75 30.75 215.75 33.64 210.11 33.64"></polygon>
            <path d="M236,48.52 L231.63,42.33 L227.72,42.33 L227.72,48.52 L224.6,48.52 L224.6,30.75 L232.52,30.75 C236.61,30.75 239.12,32.91 239.12,36.39 C239.216892,38.9845128 237.423435,41.2686327 234.88,41.79 L239.68,48.52 L236,48.52 Z M232.3,33.59 L227.75,33.59 L227.75,39.59 L232.32,39.59 C234.56,39.59 235.98,38.42 235.98,36.59 C235.98,34.76 234.61,33.59 232.3,33.59 Z" id="Shape" fill-rule="nonzero"></path>
            <rect id="Rectangle" x="248.74" y="30.75" width="3.12" height="17.77"></rect>
            <path d="M270.45,48.83 C268.033303,48.8304312 265.717973,47.8589191 264.025173,46.1341435 C262.332372,44.409368 261.404351,42.0762658 261.45,39.66 C261.392299,37.2070967 262.338551,34.8369666 264.069715,33.0982507 C265.80088,31.3595347 268.166869,30.402976 270.62,30.45 C273.221436,30.3533282 275.743636,31.3549501 277.57,33.21 L275.57,35.52 C274.265099,34.1455189 272.46483,33.3497997 270.57,33.31 C268.948013,33.3431042 267.408561,34.0316184 266.302627,35.2185667 C265.196693,36.4055149 264.618546,37.9897216 264.7,39.61 C264.7,43.12 267.17,45.96 270.57,45.96 C272.517322,45.9329753 274.365356,45.0959241 275.67,43.65 L277.67,45.65 C275.862122,47.7300958 273.214576,48.8867906 270.46,48.8" id="Path"></path>
            <path d="M308,48.83 C305.583303,48.8304312 303.267973,47.8589191 301.575173,46.1341435 C299.882372,44.409368 298.954351,42.0762658 299,39.66 C298.942299,37.2070967 299.888551,34.8369666 301.619715,33.0982507 C303.35088,31.3595347 305.716869,30.402976 308.17,30.45 C310.788374,30.3403306 313.33105,31.3428714 315.17,33.21 L313.17,35.52 C311.867735,34.1417831 310.065818,33.3453361 308.17,33.31 C304.76,33.31 302.3,36.11 302.3,39.61 C302.3,43.11 304.66,46 308.07,46 C310.017322,45.9729753 311.865356,45.1359241 313.17,43.69 L315.17,45.69 C313.370051,47.7565357 310.739381,48.9086003 308,48.83" id="Path"></path>
            <path d="M335.43,48.52 L331.06,42.33 L327.15,42.33 L327.15,48.52 L324,48.52 L324,30.75 L332,30.75 C336.09,30.75 338.6,32.91 338.6,36.39 C338.696892,38.9845128 336.903435,41.2686327 334.36,41.79 L339.16,48.52 L335.43,48.52 Z M331.7,33.59 L327.15,33.59 L327.15,39.59 L331.72,39.59 C333.96,39.59 335.38,38.42 335.38,36.59 C335.38,34.76 334.01,33.59 331.7,33.59 Z" id="Shape" fill-rule="nonzero"></path>
            <path d="M365,48.52 L361.7,48.52 L359.89,44.23 L351.49,44.23 L349.66,48.52 L346.46,48.52 L354.28,30.62 L357.18,30.62 L365,48.52 Z M355.68,34.36 L352.63,41.46 L358.75,41.46 L355.68,34.36 Z" id="Shape" fill-rule="nonzero"></path>
            <polygon id="Path" points="386.83 33.59 376.73 33.59 376.73 38.44 385.69 38.44 385.69 41.29 376.73 41.29 376.73 48.52 373.6 48.52 373.6 30.75 386.83 30.75"></polygon>
            <polygon id="Path" points="403.35 48.52 400.2 48.52 400.2 33.64 394.57 33.64 394.57 30.75 408.99 30.75 408.99 33.64 403.35 33.64"></polygon>
            <path d="M424.35,38.21 C428.1,39.13 430.06,40.47 430.06,43.44 C430.06,46.8 427.44,48.78 423.71,48.78 C420.969731,48.794312 418.324424,47.7768863 416.3,45.93 L418.18,43.7 C419.686903,45.1561184 421.694622,45.9792474 423.79,46 C425.72,46 426.94,45.11 426.94,43.74 C426.94,42.37 426.23,41.74 422.94,41 C419.16,40.08 417.03,39 417.03,35.67 C417.03,32.57 419.57,30.49 423.1,30.49 C425.447044,30.440967 427.734433,31.2318006 429.55,32.72 L427.87,35.08 C426.490749,33.9546946 424.779217,33.3150665 423,33.26 C421.17,33.26 420.1,34.2 420.1,35.4 C420.1,36.79 420.91,37.4 424.32,38.21" id="Path"></path>
            <path d="M99.37,75.66 C94.3159518,75.5884706 90.268351,71.4489034 90.3103696,66.3945237 C90.3523881,61.3401439 94.4682516,57.2684421 99.5227906,57.2809484 C104.577329,57.2934547 108.672994,61.3854742 108.69,66.44 C108.752273,68.9213847 107.786974,71.3183213 106.022376,73.0639855 C104.257779,74.8096496 101.850569,75.7490361 99.37,75.66 M99.37,60.15 C97.7271571,60.1480799 96.1553834,60.8198727 95.0214441,62.0086191 C93.8875047,63.1973656 93.2905947,64.799076 93.37,66.44 C93.299581,68.0842187 93.8976082,69.6869426 95.027879,70.8831458 C96.1581497,72.0793491 97.7244321,72.7671862 99.37,72.79 C101.012843,72.7919201 102.584617,72.1201273 103.718556,70.9313809 C104.852495,69.7426344 105.449405,68.140924 105.37,66.5 C105.440419,64.8557813 104.842392,63.2530574 103.712121,62.0568542 C102.58185,60.8606509 101.015568,60.1728138 99.37,60.15" id="Shape" fill-rule="nonzero"></path>
            <polygon id="Path" points="131.28 60.43 121.17 60.43 121.17 65.28 130.13 65.28 130.13 68.12 121.17 68.12 121.17 75.36 118.05 75.36 118.05 57.58 131.28 57.58"></polygon>
            <path d="M160.34,65.05 C164.09,65.96 166.05,67.31 166.05,70.28 C166.05,73.63 163.43,75.61 159.7,75.61 C156.961609,75.6241088 154.317501,74.6107127 152.29,72.77 L154.17,70.53 C155.672459,71.9941505 157.682195,72.8216889 159.78,72.84 C161.71,72.84 162.93,71.95 162.93,70.58 C162.93,69.21 162.22,68.58 158.93,67.84 C155.15,66.93 153.02,65.84 153.02,62.51 C153.02,59.41 155.56,57.33 159.09,57.33 C161.436352,57.285358 163.722266,58.0756817 165.54,59.56 L163.86,61.93 C162.488568,60.7965391 160.778424,60.1525959 159,60.1 C157.17,60.1 156.1,61.04 156.1,62.23 C156.1,63.63 156.91,64.23 160.32,65.05" id="Path"></path>
            <polygon id="Path" points="185.29 57.53 187.93 57.53 192.3 70.76 196.54 57.58 199.81 57.58 193.62 75.48 190.93 75.48 186.56 62.71 182.19 75.48 179.5 75.48 173.31 57.58 176.69 57.58 180.93 70.76"></polygon>
            <polygon id="Path" points="221.77 60.38 211.71 60.38 211.71 65 220.63 65 220.63 67.79 211.71 67.79 211.71 72.56 221.9 72.56 221.9 75.36 208.59 75.36 208.59 57.58 221.77 57.58"></polygon>
            <path d="M237.81,75.36 L231.18,75.36 L231.18,57.58 L237.81,57.58 C243.39,57.58 247.25,61.42 247.25,66.45 C247.25,71.48 243.39,75.36 237.81,75.36 M237.81,60.43 L234.3,60.43 L234.3,72.51 L237.81,72.51 C241.1458,72.51 243.85,69.8057999 243.85,66.47 C243.85,63.1342001 241.1458,60.43 237.81,60.43" id="Shape" fill-rule="nonzero"></path>
            <polygon id="Path" points="269.79 60.38 259.74 60.38 259.74 65 268.65 65 268.65 67.79 259.74 67.79 259.74 72.56 269.92 72.56 269.92 75.36 256.62 75.36 256.62 57.58 269.79 57.58"></polygon>
            <polygon id="Path" points="291.62 57.58 294.69 57.58 294.69 75.36 292.08 75.36 282.28 62.71 282.28 75.36 279.21 75.36 279.21 57.58 282.1 57.58 291.62 69.87"></polygon>
            <rect id="Rectangle" x="67.86" y="0.3" width="2.54" height="77.06"></rect>
        </g>
    </g>
</svg>