<?xml version="1.0" encoding="UTF-8"?>
<svg width="60px" height="60px" viewBox="0 0 60 60" version="1.1" xmlns="http://www.w3.org/2000/svg" xmlns:xlink="http://www.w3.org/1999/xlink">
    <!-- Generator: Sketch 52.2 (67145) - http://www.bohemiancoding.com/sketch -->
    <title>Artboard</title>
    <desc>Created with Sketch.</desc>
    <g id="Artboard" stroke="none" stroke-width="1" fill="none" fill-rule="evenodd">
        <g id="icon-smogen-black" transform="translate(1.000000, 23.000000)" stroke="#000000" stroke-width="0.7">
            <polyline id="Path" points="0 13.2902721 6.21425311 6.75004951 32.4393049 6.75004951 36.4044131 5.10972393 57.0876885 5.10972393 54.6530197 13.3112852 0 13.3112852"></polyline>
            <polyline id="Path" points="29.8680984 6.75055344 28.4305541 0 24.8364557 0.546778361 25.8566852 6.75055344"></polyline>
            <path d="M7.02529279,6.75033475 L9.06578033,4.50014393 C9.06578033,4.50014393 9.57589508,3.93234295 11.6396492,3.93234295 C13.7033082,3.93234295 18.1785311,3.93234295 18.1785311,3.93234295 C18.1785311,3.93234295 18.6654459,3.93234295 19.0132557,4.50014393 C19.3610656,5.06795443 20.1262852,6.75033475 20.1262852,6.75033475" id="Path"></path>
            <path d="M37.9566262,5.10995213 L39.0000557,3.9322859 C39.0000557,3.9322859 39.7884754,2.88079344 41.5971246,2.88079344 C43.4288787,2.88079344 52.0546197,2.88079344 52.0546197,2.88079344 L52.7734393,1.78724623 C52.7734393,1.78724623 53.561859,0.630612131 55.1850033,0.630612131 C58.5935016,0.630612131 58.4775967,0.441341967 57.0863574,5.10995213" id="Path"></path>
            <path d="M15.1418984,3.93234295 L12.8695344,6.75033475" id="Path"></path>
            <path d="M47.279223,2.88078393 L45.6560787,5.10993311" id="Path"></path>
            <path d="M52.0563311,2.88078393 L50.317282,5.10993311" id="Path"></path>
        </g>
    </g>
</svg>