<?xml version="1.0" encoding="UTF-8"?>
<svg width="60px" height="60px" viewBox="0 0 60 60" version="1.1" xmlns="http://www.w3.org/2000/svg" xmlns:xlink="http://www.w3.org/1999/xlink">
    <!-- Generator: Sketch 52.2 (67145) - http://www.bohemiancoding.com/sketch -->
    <title>Artboard</title>
    <desc>Created with Sketch.</desc>
    <g id="Artboard" stroke="none" stroke-width="1" fill="none" fill-rule="evenodd">
        <g id="Group-(10)" transform="translate(1.000000, 2.000000)" stroke="#FFFFFF" stroke-width="0.7">
            <path d="M35.4617613,39.7073613 L33.0141613,42.0993935" id="Path"></path>
            <path d="M46.5579097,46.4759613 L42.0254903,50.9054774" id="Path"></path>
            <polygon id="Path" points="37.4496645 25.6464774 26.8092839 36.0453161 47.3590581 56.1290323 57.9994387 45.7301935"></polygon>
            <path d="M11.2232432,0 L0.581029032,10.4008219 L14.9761426,24.4694516 L17.4235742,22.0774194 L14.9761426,24.4694516 L19.7261742,29.1116968 L30.3684258,18.7108 L11.2232432,0 Z M5.96559935,15.6632368 L10.4980561,11.2335897 L5.96559935,15.6632368 Z" id="Shape"></path>
            <polyline id="Path" points="37.4554645 25.6388065 55.875329 7.6366729 48.8047548 0.708685161 30.3667419 18.7285742"></polyline>
            <polyline id="Path" points="19.7252387 29.1292839 4.22428968 44.2786968 11.3130684 51.188929 26.8141484 36.0395161"></polyline>
            <path d="M1.74123484,50.746071 C2.39392194,50.9763871 3.01033097,51.3485226 3.53609161,51.8622903 C4.06187097,52.3760581 4.44259419,52.9785097 4.67828,53.6163226 L11.3138168,51.188929 L4.22503806,44.2609226 L1.74123484,50.746071 Z" id="Path"></path>
            <path d="M26.8147097,36.0395161 L37.4569613,25.6388065" id="Path"></path>
            <path d="M30.3678645,18.7285742 L19.7256129,29.129471" id="Path"></path>
            <path d="M1.74046774,50.746071 L0,55.3351806 L4.69564258,53.6165097 C4.45993806,52.9786968 4.07921484,52.3762452 3.55345419,51.8624774 C3.00956387,51.3662968 2.39313613,50.9941613 1.74046774,50.746071 Z" id="Path"></path>
        </g>
    </g>
</svg>