<?xml version="1.0" encoding="UTF-8"?>
<svg width="60px" height="60px" viewBox="0 0 60 60" version="1.1" xmlns="http://www.w3.org/2000/svg" xmlns:xlink="http://www.w3.org/1999/xlink">
    <!-- Generator: Sketch 52.2 (67145) - http://www.bohemiancoding.com/sketch -->
    <title>Artboard</title>
    <desc>Created with Sketch.</desc>
    <g id="Artboard" stroke="none" stroke-width="1" fill="none" fill-rule="evenodd">
        <g id="icon-customize-black" transform="translate(2.000000, 3.000000)" stroke="#000000" stroke-width="0.7">
            <path d="M34.3552125,38.4668687 L31.9842812,40.78415" id="Path"></path>
            <path d="M45.1013438,45.0230437 L40.7103812,49.3143187" id="Path"></path>
            <polygon id="Path" points="36.2809938 24.845025 25.9733063 34.9189 45.8809 54.375 56.1887688 44.301125"></polygon>
            <path d="M10.8725169,0 L0.562871875,10.0757962 L14.5081381,23.7047812 L16.8790875,21.3875 L14.5081381,23.7047812 L19.1097312,28.2019562 L29.4194125,18.1260875 L10.8725169,0 Z M5.77917437,15.1737606 L10.1699919,10.88254 L5.77917437,15.1737606 Z" id="Shape"></path>
            <polyline id="Path" points="36.2849813 24.837775 54.129225 7.39824438 47.2796063 0.686774375 29.4177812 18.1434875"></polyline>
            <polyline id="Path" points="19.108825 28.2193563 4.09228062 42.89535 10.959535 49.5896375 25.9762063 34.9136437"></polyline>
            <path d="M1.68506312,49.1602563 C2.31733562,49.383375 2.91448187,49.7438813 3.42383062,50.2415937 C3.93316125,50.7393062 4.30198687,51.3229312 4.5303075,51.9408125 L10.9584837,49.589275 L4.09122938,42.8777688 L1.68506312,49.1602563 Z" id="Path"></path>
            <path d="M25.97675,34.9136437 L36.2864312,24.837775" id="Path"></path>
            <path d="M29.4188688,18.1436688 L19.1091875,28.2193563" id="Path"></path>
            <path d="M1.68607813,49.1604375 L0,53.6063187 L4.54890375,51.941175 C4.320565,51.3232937 3.95173938,50.7396687 3.44240875,50.2419563 C2.915515,49.7612812 2.31835063,49.400775 1.68607813,49.1604375 Z" id="Path"></path>
        </g>
    </g>
</svg>