<svg width="38" height="70" viewBox="0 0 38 70" fill="none" xmlns="http://www.w3.org/2000/svg">
<path d="M37.902 69.9634C37.9338 69.9464 37.9681 69.9293 38 69.9147C37.8824 69.2515 37.7697 68.5883 37.6447 67.9276C37.434 66.8133 37.3458 65.6576 36.9783 64.597C35.7313 61.0007 34.3813 57.4361 33.0754 53.8593C31.6495 49.9558 30.226 46.0499 28.805 42.1464C27.5506 38.7037 26.3035 35.2586 25.0467 31.8183C24.2308 29.5849 23.3954 27.3589 22.5844 25.1255C22.4447 24.7452 22.2267 24.7013 21.8935 24.8427C21.6338 24.9549 21.3716 25.0865 21.0972 25.145C20.6587 25.2401 20.6195 25.4839 20.7542 25.8399C20.96 26.3861 21.1609 26.9322 21.3667 27.4759C21.9694 29.0802 22.5868 30.6797 23.1749 32.2913C23.6012 33.4567 23.9736 34.6393 24.3974 35.8047C25.0589 37.6236 25.7474 39.4303 26.4138 41.2467C27.7883 45.0015 29.1554 48.7587 30.5274 52.5135C31.7647 55.8976 32.9995 59.2843 34.2416 62.666C34.6214 63.6998 34.9375 64.7677 35.4299 65.7454C36.1061 67.0961 36.922 68.3762 37.6815 69.6855C37.7329 69.7879 37.826 69.8708 37.902 69.9634ZM0 70C0.110251 69.9366 0.161702 69.9244 0.181302 69.8952C0.340554 69.644 0.497357 69.3904 0.646809 69.132C1.76892 67.201 2.89839 65.2846 3.6285 63.1439C4.90741 59.4086 6.31373 55.7172 7.6686 52.0088C9.04062 48.2564 10.42 44.5065 11.7896 40.7517C12.3972 39.0865 12.9778 37.4115 13.5854 35.7462C13.8966 34.8904 14.2469 34.0517 14.5654 33.1983C14.9501 32.167 15.3176 31.1283 15.6949 30.0921C16.2192 28.6584 16.7484 27.2272 17.2752 25.7936C17.3952 25.4693 17.3315 25.2548 16.9567 25.1548C16.6676 25.0792 16.3907 24.9549 16.1163 24.8378C15.7758 24.694 15.5626 24.7525 15.4328 25.1328C15.1779 25.8936 14.8864 26.6421 14.6169 27.3955C13.8549 29.5118 13.1052 31.633 12.331 33.7469C11.8361 35.1025 11.2971 36.4411 10.7973 37.7942C10.3171 39.0938 9.86383 40.4007 9.38852 41.7026C8.09736 45.2355 6.79639 48.766 5.50522 52.2989C4.39046 55.3417 3.27569 58.3846 2.17318 61.4323C1.71257 62.7026 1.20787 63.9655 0.864861 65.27C0.539007 66.4988 0.396905 67.7739 0.171502 69.0296C0.120052 69.3319 0.0661509 69.6343 0 70ZM11.1917 15.6045C11.1966 19.9322 14.7002 23.3993 19.0539 23.392C23.3292 23.3847 26.8034 19.8786 26.8328 15.6094C26.8622 11.4791 23.4885 7.80479 18.9926 7.7926C14.6879 7.78041 11.1844 11.306 11.1917 15.6045ZM19.9678 3.26248C19.9678 3.26248 19.9702 3.26248 19.9678 3.26248C19.9702 2.631 19.9702 2.00195 19.9702 1.37047C19.9702 -0.00222216 19.9702 0.0197213 18.6104 0.000216007C18.1302 -0.0070985 18.0322 0.170888 18.0396 0.604881C18.0616 2.10192 18.0469 3.60139 18.0469 5.09842C18.0469 6.55157 18.0469 6.54426 19.5047 6.51988C19.8526 6.515 19.98 6.40772 19.9727 6.05419C19.9555 5.12281 19.9678 4.19386 19.9678 3.26248Z" fill="white"/>
<path d="M37.9034 69.9634C37.8274 69.8732 37.7343 69.7903 37.6755 69.6879C36.916 68.3786 36.1026 67.0961 35.4239 65.7478C34.9315 64.7677 34.6154 63.7022 34.2357 62.6684C32.9935 59.2842 31.7587 55.9 30.5214 52.5159C29.1494 48.7611 27.7823 45.0039 26.4078 41.2491C25.7414 39.4327 25.0529 37.626 24.3914 35.8071C23.9676 34.6417 23.5952 33.4592 23.1689 32.2937C22.5808 30.6845 21.9659 29.0826 21.3607 27.4783C21.1549 26.9322 20.954 26.386 20.7482 25.8423C20.6135 25.4888 20.6527 25.2425 21.0912 25.1474C21.3656 25.0889 21.6253 24.9573 21.8875 24.8451C22.2207 24.7037 22.4387 24.7451 22.5784 25.1279C23.3918 27.3613 24.2248 29.5873 25.0407 31.8207C26.2975 35.261 27.5446 38.7061 28.799 42.1488C30.2201 46.0547 31.6435 49.9582 33.0694 53.8617C34.3753 57.4385 35.7253 61.0007 36.9723 64.5994C37.3398 65.66 37.428 66.8157 37.6387 67.93C37.7637 68.5907 37.8764 69.2539 37.994 69.9171C37.9695 69.9293 37.9377 69.9463 37.9034 69.9634Z" fill="black"/>
<path d="M0 70.0002C0.0661509 69.6345 0.120052 69.3322 0.173952 69.0298C0.396905 67.7742 0.541457 66.499 0.867311 65.2702C1.21277 63.9682 1.71747 62.7052 2.17563 61.4325C3.27814 58.3848 4.39291 55.342 5.50767 52.2991C6.80129 48.7662 8.09981 45.2358 9.39097 41.7028C9.86628 40.4033 10.3195 39.094 10.7997 37.7945C11.302 36.4413 11.8386 35.1027 12.3335 33.7471C13.1077 31.6332 13.8574 29.512 14.6193 27.3957C14.8913 26.6398 15.1804 25.8913 15.4352 25.1331C15.5626 24.7503 15.7782 24.6917 16.1188 24.838C16.3956 24.9551 16.6725 25.0794 16.9591 25.155C17.334 25.2525 17.3952 25.4671 17.2776 25.7938C16.7509 27.225 16.2217 28.6586 15.6974 30.0923C15.3176 31.1261 14.9525 32.1647 14.5679 33.1985C14.2494 34.0519 13.899 34.8906 13.5879 35.7464C12.9803 37.4117 12.3996 39.0867 11.792 40.752C10.4224 44.5067 9.04307 48.2566 7.67105 52.009C6.31618 55.7174 4.90986 59.4088 3.63095 63.1441C2.89839 65.2848 1.77137 67.1988 0.649258 69.1322C0.499807 69.3907 0.343004 69.6418 0.183752 69.8954C0.161702 69.9271 0.110251 69.9368 0 70.0002Z" fill="black"/>
<path d="M11.1924 15.6044C11.185 11.3083 14.691 7.78032 18.9933 7.79251C23.4916 7.8047 26.8628 11.479 26.8334 15.6093C26.804 19.8761 23.3323 23.3846 19.0545 23.3919C14.7008 23.3992 11.1973 19.9321 11.1924 15.6044ZM19.2457 21.4414C22.4699 21.3634 25.1429 18.518 24.8954 15.0826C24.6774 12.0666 21.7937 9.52849 18.7483 9.72842C15.3525 9.95029 12.9148 12.7054 13.1279 16.0774C13.319 19.1276 16.1758 21.6316 19.2457 21.4414Z" fill="black"/>
<path d="M19.9684 3.26248C19.9684 4.19386 19.9561 5.12281 19.9757 6.05419C19.9831 6.40772 19.8532 6.515 19.5078 6.51988C18.05 6.54426 18.05 6.55401 18.05 5.09842C18.05 3.60139 18.0647 2.10192 18.0426 0.604881C18.0328 0.170888 18.1308 -0.0070985 18.611 0.000216007C19.9684 0.0197213 19.9708 -0.00222216 19.9708 1.37047C19.9708 2.00195 19.9708 2.631 19.9684 3.26248C19.9708 3.26248 19.9684 3.26248 19.9684 3.26248Z" fill="black"/>
<path d="M19.2445 21.4413C16.1746 21.6315 13.3178 19.1275 13.1243 16.0749C12.9111 12.7029 15.3489 9.94778 18.7447 9.72591C21.7901 9.52598 24.6762 12.0641 24.8918 15.0801C25.1417 18.5179 22.4712 21.3657 19.2445 21.4413Z" fill="white"/>
</svg>
