<?xml version="1.0" encoding="UTF-8"?>
<svg width="40px" height="40px" viewBox="0 0 40 40" version="1.1" xmlns="http://www.w3.org/2000/svg" xmlns:xlink="http://www.w3.org/1999/xlink">
    <!-- Generator: Sketch 52.2 (67145) - http://www.bohemiancoding.com/sketch -->
    <title>Artboard</title>
    <desc>Created with Sketch.</desc>
    <g id="Artboard" stroke="none" stroke-width="1" fill="none" fill-rule="evenodd">
        <path d="M14.43476,32.38136 C25.75604,32.38136 31.94708,23.00204 31.94708,14.86904 C31.94708,14.60252 31.94168,14.3372 31.92944,14.07332 C33.13112,13.20464 34.17584,12.12068 35,10.88648 C33.89708,11.37632 32.71028,11.70656 31.46528,11.85536 C32.73608,11.0936 33.71168,9.88784 34.17176,8.45072 C32.98232,9.15572 31.66556,9.66848 30.2636,9.9446 C29.14052,8.74832 27.54092,8 25.77092,8 C22.37156,8 19.61504,10.75652 19.61504,14.15456 C19.61504,14.63768 19.66916,15.10724 19.77464,15.55796 C14.6594,15.3008 10.1234,12.85148 7.088,9.12728 C6.55892,10.03664 6.25448,11.0936 6.25448,12.22076 C6.25448,14.35628 7.34108,16.24136 8.99336,17.34416 C7.98392,17.31308 7.03532,17.03564 6.20576,16.57412 C6.20432,16.5998 6.20432,16.6256 6.20432,16.6526 C6.20432,19.63388 8.32628,22.12244 11.14232,22.6868 C10.62548,22.82744 10.0814,22.90328 9.5198,22.90328 C9.12332,22.90328 8.73764,22.86404 8.36276,22.79228 C9.14636,25.23764 11.41844,27.01712 14.11268,27.06728 C12.00572,28.71812 9.35204,29.70188 6.46832,29.70188 C5.97164,29.70188 5.4818,29.67356 5,29.61668 C7.72412,31.36232 10.95836,32.38136 14.43476,32.38136" id="Fill-1" fill="#4B4E51"></path>
    </g>
</svg>