<svg width="56" height="37" viewBox="0 0 56 37" fill="none" xmlns="http://www.w3.org/2000/svg">
<path d="M52.7375 5.42171C52.3419 6.09372 51.9689 6.70879 51.6185 7.32386C51.2003 8.05283 50.8047 8.7818 50.3978 9.52215C50.2622 9.77274 50.1379 10.0233 50.0248 10.2853C49.8214 10.7409 49.6066 11.1965 49.4258 11.6635C49.2449 12.1191 49.098 12.5861 48.9511 13.0531C48.838 13.4062 48.725 13.7593 48.6346 14.1124C48.5103 14.568 48.4085 15.0236 48.2955 15.4792C48.1486 16.117 47.9903 16.7663 47.8434 17.4155C47.7304 17.9395 47.6399 18.4748 47.5043 18.9988C47.38 19.4999 47.2443 20.0011 47.0861 20.4909C46.9053 21.0376 46.7131 21.5957 46.487 22.1196C46.3062 22.5297 46.0462 22.9056 45.8428 23.3042C45.402 24.1699 44.7916 24.9102 44.1361 25.6164C43.4918 26.3112 42.791 26.9377 41.9659 27.4161C41.4008 27.7464 40.8243 28.0653 40.2366 28.3501C39.8636 28.5323 39.4454 28.6576 39.0385 28.7601C38.3603 28.9196 37.6821 29.0562 37.0039 29.1815C36.6875 29.2385 36.371 29.2499 36.0432 29.2613C35.512 29.2727 34.9694 29.2954 34.4382 29.2727C33.2966 29.2271 32.1776 29.0449 31.0587 28.8512C30.4935 28.7601 30.0414 29.1018 29.9623 29.6941C29.9058 30.1155 30.1431 30.6281 30.6517 30.7192C31.6238 30.9014 32.6071 31.1179 33.5905 31.209C35.3537 31.3684 37.117 31.2659 38.8463 30.8217C39.6714 30.6053 40.5078 30.4117 41.2651 30.013C41.9772 29.6371 42.7119 29.3068 43.3788 28.8512C44.769 27.9172 45.9332 26.7327 46.8939 25.3431C47.7191 24.1471 48.3859 22.8714 48.8267 21.4932C49.1545 20.4681 49.3806 19.3974 49.6292 18.3381C49.7988 17.6205 49.9457 16.903 50.1153 16.1854C50.2057 15.7867 50.3074 15.3995 50.4204 15.0122C50.5561 14.5338 50.6804 14.044 50.8386 13.577C51.0195 13.0189 51.2342 12.4836 51.449 11.9369C51.6411 11.4699 51.822 10.9915 52.048 10.5359C52.3306 9.97776 52.6584 9.43103 52.9749 8.88431C53.5287 7.92754 54.0939 6.95937 54.659 6.01399C55.032 5.38754 55.4502 4.77247 55.8232 4.14601C56.0154 3.82709 55.9927 3.78153 55.6198 3.73597C54.546 3.59928 53.4722 3.4626 52.3984 3.36009C51.5959 3.28036 50.7821 3.25758 49.9796 3.18924C48.2955 3.05256 46.6114 2.93866 44.9272 3.06395C43.2996 3.18924 41.672 3.37148 40.0444 3.54233C39.4793 3.59928 38.9141 3.71318 38.3603 3.84987C37.5804 4.0435 36.8118 4.29408 36.0432 4.52188C35.4216 4.71552 34.7773 4.88637 34.1782 5.14834C33.3305 5.51283 32.4941 5.92287 31.669 6.33292C30.7761 6.78852 29.9849 7.3922 29.2389 8.05283C28.3234 8.86153 27.5096 9.76135 26.8088 10.7751C26.4245 11.3332 26.0628 11.9027 25.7463 12.5064C25.4072 13.1784 25.102 13.8732 24.8534 14.5794C24.5934 15.3083 24.3561 16.0487 24.1978 16.8005C24.0396 17.5408 23.9605 18.304 23.9265 19.0557C23.8926 19.91 23.9265 20.7642 24.017 21.6071C24.0848 22.2677 24.2543 22.9283 24.4013 23.5776C24.4917 23.999 24.616 24.4205 24.729 24.8419C24.8082 25.1039 24.8986 25.3658 25.0116 25.6164C25.3055 26.2429 25.622 26.8466 25.9045 27.473C25.9498 27.5755 25.9498 27.7236 25.9045 27.8261C25.735 28.2362 25.5316 28.6234 25.3507 29.0335C25.1133 29.5688 24.876 30.0927 24.6612 30.6395C24.4578 31.1406 24.2769 31.6532 24.0961 32.1771C23.8474 32.8833 23.5988 33.6009 23.3727 34.3185C23.2484 34.7171 23.1693 35.15 23.0223 35.5372C22.8754 35.9131 22.8867 36.2548 23.124 36.5851C23.3388 36.8813 23.6327 37.0293 23.9944 36.9952C24.3448 36.961 24.6047 36.8015 24.729 36.4712C24.8421 36.1751 24.9099 35.8562 25.0003 35.5486C25.2151 34.8766 25.4411 34.2046 25.6672 33.5326C25.9498 32.7353 26.2097 31.9266 26.5375 31.1406C26.9783 30.0927 27.4643 29.0676 27.9843 28.0425C28.4703 27.0857 28.9789 26.1404 29.5328 25.2178C30.1092 24.2496 30.7422 23.3042 31.3751 22.3702C31.556 22.1083 31.6916 21.7893 32.0533 21.6868C32.4376 21.5843 32.8106 21.459 33.1836 21.3451C33.9635 21.0945 34.7547 20.9009 35.5798 20.8667C35.885 20.8553 36.2014 20.787 36.5066 20.7756C37.1735 20.7528 37.8404 20.7414 38.5072 20.7528C38.8576 20.7642 39.1967 20.8212 39.5471 20.8667C40.0105 20.9237 40.4739 21.0034 40.9373 21.0604C41.1295 21.0831 41.3329 21.1287 41.5251 21.1059C41.9772 21.049 42.2598 20.7642 42.3615 20.3086C42.4519 19.9214 42.2372 19.4771 41.8755 19.3177C41.0843 18.9532 40.2253 18.8962 39.4002 18.8507C37.7725 18.7596 36.1223 18.6684 34.506 19.0443C34.4156 19.0671 34.3026 19.0215 34.1895 19.0101C34.2234 18.9304 34.2234 18.8962 34.2461 18.8848C35.3311 17.8256 36.3936 16.7435 37.5126 15.7184C38.1568 15.1261 38.8802 14.6249 39.581 14.1124C40.1914 13.6682 40.8243 13.2467 41.4686 12.8367C41.7851 12.6317 42.1241 12.4608 42.4519 12.2786C43.0623 11.9483 43.6613 11.5952 44.283 11.3104C44.8029 11.0712 45.1307 10.5587 45.0177 10.0005C44.9273 9.56772 44.2378 9.13489 43.8422 9.31713C43.1414 9.64745 42.4406 9.98915 41.7625 10.3764C40.9713 10.832 40.2027 11.3104 39.4454 11.823C38.609 12.3811 37.8178 12.9961 36.9926 13.5884C36.857 13.6909 36.7101 13.7593 36.5631 13.8504C36.5744 13.6454 36.5744 13.4518 36.5857 13.2467C36.5857 13.2353 36.597 13.2239 36.597 13.2239C36.7553 12.6886 36.9022 12.1533 37.0605 11.6179C37.0944 11.504 37.1283 11.3674 37.117 11.2535C37.0831 11.037 37.0831 10.7751 36.9587 10.6042C36.6988 10.217 36.2806 10.1714 35.8737 10.2967C35.5007 10.3992 35.2859 10.6839 35.1955 11.094C35.1051 11.5154 34.9807 11.9369 34.8564 12.3469C34.6417 13.0645 34.4156 13.7707 34.2121 14.4769C34.02 15.1603 33.8505 15.8437 33.6696 16.5271C33.647 16.5954 33.6131 16.6638 33.5566 16.7207C33.1271 17.1877 32.6863 17.6319 32.2794 18.1103C31.6012 18.919 30.923 19.7277 30.2901 20.5706C29.7362 21.3109 29.2276 22.0741 28.719 22.8486C28.2781 23.5206 27.8825 24.2154 27.4643 24.8875C27.3739 25.0469 27.2609 25.1836 27.1026 25.3886C26.967 25.1039 26.8427 24.8875 26.7523 24.671C26.6166 24.2952 26.4697 23.9079 26.3793 23.5092C26.221 22.8486 26.0628 22.188 25.9724 21.516C25.8254 20.4111 25.8141 19.3063 25.9611 18.2014C26.0402 17.575 26.1306 16.9371 26.3001 16.3335C26.4697 15.7298 26.6957 15.1375 26.967 14.568C27.3174 13.8048 27.6678 13.0417 28.1199 12.3469C28.6285 11.5838 29.2276 10.8662 29.8492 10.1828C30.5726 9.38547 31.4316 8.72485 32.3698 8.2009C32.9236 7.89337 33.5001 7.62 34.0765 7.35803C34.5738 7.13023 35.0825 6.89103 35.6024 6.70879C36.2806 6.4696 36.9813 6.26458 37.6708 6.09372C38.6768 5.84314 39.694 5.59256 40.7226 5.4331C42.1694 5.1939 43.6387 5.09139 45.1081 5.06861C47.5043 5.04583 49.8892 5.06861 52.2741 5.36475C52.455 5.35336 52.568 5.38754 52.7375 5.42171ZM5.63853 0C3.77356 0.159462 2.06683 0.307534 0.360099 0.466996C-0.0241981 0.501166 -0.0920152 0.683408 0.134042 1.01372C0.450522 1.48072 0.744396 1.9591 1.03827 2.44888C1.44517 3.10951 1.84077 3.75875 2.22507 4.43076C2.53025 4.9661 2.83542 5.51283 3.08409 6.08233C3.33275 6.64045 3.5136 7.23274 3.69444 7.81363C3.9318 8.58816 4.14655 9.37408 4.35001 10.16C4.54215 10.9004 4.70039 11.6407 4.88124 12.3925C5.09599 13.2809 5.5255 14.0896 6.01153 14.8527C6.72361 15.9576 7.59392 16.9257 8.65639 17.6889C9.21023 18.0875 9.78668 18.4748 10.3857 18.7823C10.9057 19.0557 11.4821 19.2152 12.0359 19.4202C12.7028 19.6708 13.3923 19.8644 14.1157 19.8758C15.1555 19.8872 16.2067 19.8644 17.2466 19.853C17.3144 19.853 17.3822 19.8416 17.4387 19.8188C17.9586 19.6138 18.2299 18.9987 18.0378 18.452C17.9247 18.1331 17.2466 17.7117 16.7944 17.9053C16.6814 17.9509 16.5571 17.9622 16.4328 17.9736C14.9182 18.0989 13.4488 17.9053 12.0586 17.2902C11.4256 17.0169 10.77 16.7093 10.2049 16.3107C9.54932 15.8323 8.93896 15.2742 8.37382 14.6819C7.61653 13.9074 7.1079 12.9506 6.75751 11.9255C6.54276 11.299 6.42973 10.627 6.26019 9.97776C6.00022 8.97543 5.74026 7.9731 5.48029 6.97076C5.41247 6.6974 5.29945 6.43543 5.19772 6.17345C4.99427 5.6609 4.82473 5.13695 4.57606 4.65857C4.21437 3.95238 3.78486 3.26897 3.38926 2.57417C3.24233 2.32359 3.29884 2.1983 3.58141 2.16413C4.06744 2.09579 4.55346 2.02744 5.03948 2.01605C6.91575 1.98188 8.80333 1.91354 10.6683 2.24386C11.2447 2.34637 11.8212 2.43749 12.3863 2.56278C12.7254 2.63112 13.0645 2.73363 13.3923 2.84753C13.98 3.06395 14.5678 3.28036 15.1442 3.53094C15.5624 3.71318 16.0032 3.88404 16.3762 4.14601C16.9075 4.52188 17.4161 4.94332 17.9021 5.38754C18.8968 6.31014 19.5636 7.47193 20.0384 8.73624C20.3435 9.54494 20.4905 10.3878 20.5696 11.2535C20.66 12.1761 20.434 13.0645 20.287 13.9529C20.2644 14.0554 20.2079 14.1693 20.1401 14.2605C20.0384 14.4085 19.9479 14.4199 19.8462 14.2491C19.7332 14.044 19.6089 13.839 19.4732 13.6568C18.9985 13.0189 18.5464 12.3697 18.0491 11.766C17.337 10.9231 16.6362 10.0689 15.845 9.30574C14.8956 8.39453 13.867 7.56305 12.8724 6.6974C12.6463 6.50377 12.4202 6.34431 12.1038 6.31014C11.7195 6.27597 11.2447 6.49238 11.1204 6.77713C10.9622 7.15301 11.0639 7.7339 11.3578 7.98449C11.9342 8.46287 12.5446 8.90709 13.0984 9.41964C13.7992 10.0461 14.4774 10.7067 15.1216 11.3787C15.6868 11.971 16.218 12.5975 16.7266 13.2353C17.224 13.8618 17.6874 14.5224 18.1282 15.1831C18.5577 15.8209 18.9533 16.4929 19.3263 17.1649C19.6315 17.7117 19.914 18.2812 20.1853 18.8393C20.434 19.3518 20.66 19.8644 20.8861 20.377C21.0782 20.844 21.2365 21.3337 21.4399 21.8007C21.5077 21.9488 21.6434 22.0969 21.779 22.1652C22.1294 22.3475 22.5137 22.3702 22.8641 22.1538C23.2032 21.9488 23.3162 21.5957 23.2484 21.2198C23.1919 20.9237 23.0901 20.6503 22.9771 20.3656C22.785 19.853 22.6041 19.3291 22.3781 18.8393C22.0842 18.2014 21.7338 17.5978 21.4625 16.9599C21.3834 16.7663 21.4512 16.4815 21.4964 16.2537C21.519 16.1057 21.6321 15.969 21.6886 15.8095C21.8016 15.502 21.9259 15.1944 22.0164 14.8755C22.1633 14.3402 22.3668 13.8048 22.412 13.2581C22.4911 12.4152 22.5024 11.5496 22.4459 10.6953C22.4007 10.0233 22.2763 9.33991 22.0955 8.69068C21.9372 8.10978 21.6886 7.52888 21.406 6.99354C21.0782 6.34431 20.7391 5.69507 20.3096 5.12556C19.5523 4.12323 18.6481 3.24619 17.5856 2.56278C17.2692 2.35776 16.9527 2.15274 16.6136 1.99327C16.0937 1.75408 15.5624 1.54906 15.0312 1.35543C14.3643 1.11623 13.7088 0.877041 13.0306 0.706188C12.3524 0.535336 11.6516 0.444215 10.9509 0.307534C10.6683 0.250583 10.3744 0.159462 10.0919 0.148072C8.55467 0.0911211 7.01748 0.0455605 5.63853 0Z" fill="white"/>
<path d="M52.7386 5.42187C52.5691 5.3877 52.456 5.35353 52.3317 5.34214C49.9468 5.046 47.5619 5.02322 45.1657 5.046C43.6963 5.05739 42.227 5.17129 40.7802 5.41048C39.7516 5.58134 38.7457 5.83192 37.7284 6.07111C37.0276 6.24196 36.3382 6.44699 35.66 6.68618C35.1401 6.86842 34.6314 7.09622 34.1341 7.33542C33.5577 7.59739 32.9812 7.87075 32.4274 8.17829C31.4892 8.70223 30.6302 9.36286 29.9068 10.1602C29.2852 10.8436 28.6861 11.5498 28.1775 12.3243C27.7141 13.0191 27.375 13.7822 27.0246 14.5454C26.7647 15.1149 26.5273 15.7072 26.3578 16.3108C26.1882 16.9145 26.1091 17.5524 26.0187 18.1788C25.8717 19.2837 25.883 20.3999 26.03 21.4934C26.1204 22.1654 26.2786 22.826 26.4369 23.4866C26.5273 23.8853 26.6742 24.2612 26.8099 24.6484C26.889 24.8762 27.0133 25.0812 27.1603 25.366C27.3072 25.161 27.4202 25.0129 27.5219 24.8648C27.9402 24.1814 28.3471 23.4866 28.7766 22.826C29.2852 22.0515 29.7938 21.2769 30.3477 20.548C30.9806 19.7051 31.6588 18.8964 32.337 18.0877C32.7439 17.6093 33.1847 17.1537 33.6142 16.6981C33.6594 16.6412 33.7046 16.5728 33.7272 16.5045C33.9081 15.8211 34.0776 15.1263 34.2698 14.4543C34.4732 13.7367 34.6993 13.0305 34.914 12.3243C35.0383 11.9029 35.174 11.4928 35.2531 11.0714C35.3322 10.6727 35.547 10.388 35.9313 10.2741C36.3382 10.1602 36.7564 10.1943 37.0163 10.5816C37.1294 10.7525 37.1407 11.0144 37.1746 11.2308C37.1859 11.3447 37.152 11.4814 37.1181 11.5953C36.9711 12.1307 36.8129 12.666 36.6547 13.2013C36.6547 13.2127 36.6433 13.2241 36.6433 13.2241C36.632 13.4291 36.632 13.6228 36.6207 13.8278C36.7677 13.7367 36.9146 13.6683 37.0503 13.5658C37.8641 12.9735 38.6666 12.3699 39.503 11.8004C40.2603 11.2878 41.0289 10.8094 41.8201 10.3538C42.4982 9.96654 43.199 9.62483 43.8998 9.29452C44.2954 9.11228 44.9849 9.5451 45.0753 9.97793C45.1883 10.5474 44.8605 11.0486 44.3406 11.2878C43.7189 11.5725 43.1199 11.9256 42.5095 12.256C42.1817 12.4382 41.8427 12.609 41.5262 12.8141C40.8932 13.2241 40.2603 13.6456 39.6386 14.0898C38.9378 14.6023 38.2144 15.1035 37.5702 15.6958C36.4512 16.7209 35.3887 17.803 34.3037 18.8622C34.2811 18.885 34.2811 18.9078 34.2471 18.9875C34.3715 18.9989 34.4732 19.0445 34.5636 19.0217C36.1799 18.6572 37.8301 18.7483 39.4578 18.8281C40.2829 18.8736 41.1532 18.9306 41.9331 19.2951C42.2948 19.4659 42.5095 19.8987 42.4191 20.286C42.3174 20.7416 42.0348 21.0378 41.5827 21.0833C41.3905 21.1061 41.1871 21.0719 40.9949 21.0378C40.5315 20.9808 40.0681 20.9011 39.6047 20.8441C39.2543 20.7986 38.9152 20.7416 38.5648 20.7302C37.898 20.7188 37.2311 20.7302 36.5642 20.753C36.2591 20.7644 35.9426 20.8327 35.6374 20.8441C34.8123 20.8897 34.0211 21.0719 33.2412 21.3225C32.8682 21.4478 32.4952 21.5617 32.1109 21.6642C31.7492 21.7667 31.6136 22.0856 31.4327 22.3476C30.7998 23.2816 30.1668 24.2156 29.5904 25.1952C29.0365 26.1178 28.5279 27.0631 28.0419 28.0199C27.5332 29.0336 27.0472 30.0701 26.5951 31.118C26.2673 31.8926 26.0074 32.7013 25.7248 33.51C25.4874 34.182 25.2727 34.854 25.0579 35.526C24.9562 35.8335 24.8997 36.1525 24.7867 36.4486C24.6623 36.7675 24.3911 36.9384 24.052 36.9726C23.679 37.0067 23.3964 36.87 23.1817 36.5625C22.9443 36.2322 22.9443 35.9019 23.0799 35.5146C23.2269 35.116 23.2947 34.6945 23.4303 34.2959C23.6564 33.5783 23.905 32.8607 24.1537 32.1545C24.3345 31.642 24.5154 31.1294 24.7188 30.6169C24.9336 30.0815 25.171 29.5462 25.4083 29.0108C25.5892 28.6008 25.7926 28.2135 25.9622 27.8035C26.0074 27.701 26.0074 27.5415 25.9622 27.4504C25.6683 26.8239 25.3631 26.2203 25.0692 25.5938C24.9562 25.3432 24.8658 25.0812 24.7867 24.8193C24.6623 24.3978 24.5493 23.9878 24.4589 23.555C24.3119 22.9057 24.1424 22.2451 24.0746 21.5845C23.9955 20.7416 23.9615 19.876 23.9842 19.0331C24.0068 18.2813 24.0972 17.5182 24.2554 16.7778C24.4137 16.0261 24.651 15.2743 24.911 14.5568C25.171 13.8506 25.4648 13.1558 25.8039 12.4838C26.1091 11.8801 26.4821 11.3106 26.8664 10.7525C27.5559 9.73874 28.3697 8.83891 29.2965 8.03021C30.0425 7.36959 30.8337 6.76591 31.7266 6.3103C32.5517 5.88887 33.3881 5.47882 34.2358 5.12573C34.8349 4.87515 35.4792 4.6929 36.1008 4.49927C36.8694 4.26008 37.638 4.02089 38.4179 3.82725C38.9717 3.69057 39.5369 3.58806 40.102 3.51972C41.7296 3.33748 43.3572 3.15524 44.9849 3.04133C46.669 2.91604 48.3531 3.02994 50.0372 3.16663C50.8397 3.23497 51.6535 3.25775 52.456 3.33748C53.5298 3.43999 54.6036 3.57667 55.6774 3.71335C56.0504 3.75891 56.073 3.81586 55.8808 4.1234C55.4965 4.74986 55.0896 5.36492 54.7166 5.99138C54.1402 6.94815 53.5863 7.90492 53.0325 8.8617C52.716 9.40842 52.3882 9.94376 52.1057 10.5133C51.8796 10.9689 51.6874 11.4473 51.5066 11.9143C51.2918 12.461 51.0771 12.9963 50.8962 13.5544C50.738 14.0214 50.6137 14.5112 50.478 14.9896C50.365 15.3769 50.2633 15.7755 50.1729 16.1628C50.0033 16.8804 49.8564 17.6093 49.6868 18.3155C49.4269 19.3748 49.2121 20.4341 48.8843 21.4706C48.4435 22.8488 47.7767 24.1245 46.9515 25.3204C45.9908 26.71 44.8266 27.8946 43.4364 28.8286C42.7695 29.2728 42.0348 29.6145 41.3227 29.9904C40.5541 30.3891 39.729 30.5827 38.9039 30.7991C37.1746 31.2547 35.4113 31.3458 33.6481 31.1864C32.6647 31.0952 31.6814 30.8902 30.7094 30.6966C30.2007 30.6055 29.9634 30.0929 30.0199 29.6715C30.1103 29.0792 30.5624 28.7261 31.1163 28.8286C32.2352 29.0222 33.3655 29.2045 34.4958 29.25C35.027 29.2728 35.5696 29.25 36.1008 29.2387C36.4173 29.2273 36.7451 29.2159 37.0616 29.1589C37.7397 29.0336 38.4179 28.8969 39.0961 28.7375C39.503 28.635 39.9099 28.5097 40.2942 28.3274C40.8819 28.0427 41.4584 27.7238 42.0235 27.3934C42.8486 26.9151 43.5494 26.2886 44.1937 25.5938C44.8492 24.8876 45.4596 24.1473 45.9004 23.2816C46.1038 22.883 46.3638 22.5071 46.5446 22.097C46.7707 21.5617 46.9629 21.015 47.1437 20.4682C47.3019 19.9785 47.4376 19.4773 47.5619 18.9761C47.6862 18.4522 47.7767 17.9169 47.901 17.3929C48.0479 16.7437 48.1949 16.1058 48.3531 15.4566C48.4661 15.001 48.5679 14.5454 48.6922 14.0898C48.7826 13.7367 48.8956 13.3836 49.0087 13.0305C49.1556 12.5635 49.3138 12.0965 49.4834 11.6409C49.6642 11.1739 49.879 10.7183 50.0824 10.2627C50.1955 10.0007 50.3198 9.75013 50.4554 9.49954C50.851 8.77057 51.2579 8.03021 51.6761 7.30125C51.97 6.70896 52.343 6.09389 52.7386 5.42187Z" fill="black"/>
<path d="M5.64 0C7.01895 0.0455605 8.55613 0.0911211 10.082 0.159462C10.3646 0.170852 10.6585 0.261973 10.941 0.318924C11.6305 0.444215 12.3313 0.535336 13.0208 0.717579C13.6989 0.888431 14.3658 1.13901 15.0214 1.36682C15.5526 1.56045 16.0951 1.76547 16.6038 2.00466C16.9429 2.16413 17.2593 2.36915 17.5758 2.57417C18.6383 3.25758 19.5425 4.13462 20.2998 5.13695C20.7293 5.70646 21.0684 6.36709 21.3962 7.00493C21.6674 7.55166 21.9161 8.12117 22.0857 8.70206C22.2665 9.3513 22.4021 10.0347 22.436 10.7067C22.4926 11.561 22.4699 12.4152 22.4021 13.2695C22.3569 13.8162 22.1535 14.3516 22.0065 14.8869C21.9161 15.2058 21.7918 15.5134 21.6787 15.8209C21.6222 15.969 21.5205 16.1057 21.4866 16.2651C21.4414 16.5043 21.3736 16.7777 21.4527 16.9713C21.724 17.6092 22.0857 18.2128 22.3682 18.8507C22.5943 19.3518 22.7751 19.8644 22.9673 20.377C23.069 20.6617 23.1707 20.9351 23.2385 21.2312C23.3177 21.6185 23.2046 21.9602 22.8542 22.1652C22.5039 22.3702 22.1196 22.3474 21.7692 22.1766C21.6335 22.1083 21.4979 21.9602 21.4301 21.8121C21.2266 21.3451 21.0684 20.8553 20.8762 20.3883C20.6615 19.8644 20.4241 19.3518 20.1755 18.8507C19.9042 18.2812 19.6216 17.7231 19.3165 17.1763C18.9322 16.5043 18.5366 15.8437 18.1183 15.1944C17.6775 14.5224 17.2141 13.8732 16.7168 13.2467C16.2082 12.5975 15.6769 11.9824 15.1118 11.3901C14.4675 10.7067 13.7894 10.0575 13.0886 9.43103C12.5347 8.92987 11.9244 8.48565 11.3479 7.99588C11.0541 7.74529 10.9523 7.1644 11.1106 6.78852C11.2349 6.50377 11.7096 6.28736 12.0939 6.32153C12.3991 6.34431 12.6365 6.51516 12.8625 6.70879C13.8572 7.57444 14.8857 8.39453 15.8352 9.31713C16.6264 10.0803 17.3385 10.9345 18.0392 11.7774C18.5479 12.3811 19 13.0417 19.4634 13.6682C19.599 13.8618 19.7234 14.0668 19.8364 14.2605C19.9381 14.4313 20.0285 14.4199 20.1303 14.2718C20.1868 14.1807 20.2546 14.0782 20.2772 13.9643C20.4241 13.0645 20.6389 12.1874 20.5598 11.2648C20.4806 10.3992 20.3337 9.55632 20.0285 8.74763C19.5538 7.48332 18.8869 6.32153 17.8923 5.39893C17.4176 4.95471 16.9089 4.53327 16.3664 4.1574C15.9934 3.89543 15.5639 3.72457 15.1344 3.54233C14.558 3.30314 13.9702 3.07534 13.3825 2.85892C13.0547 2.74502 12.7156 2.64251 12.3765 2.57417C11.8114 2.46027 11.2349 2.35776 10.6585 2.25525C8.79349 1.92493 6.90592 1.99327 5.02964 2.02744C4.54362 2.03883 4.0576 2.10718 3.57158 2.17552C3.289 2.20969 3.24379 2.33498 3.37943 2.58556C3.77503 3.28036 4.20454 3.95238 4.56623 4.66996C4.81489 5.14834 4.98443 5.68368 5.18788 6.18484C5.28961 6.44682 5.39134 6.70879 5.47046 6.98215C5.74172 7.98449 5.99039 8.98682 6.25035 9.98915C6.4199 10.6384 6.53292 11.299 6.74768 11.9369C7.09807 12.962 7.60669 13.9187 8.36399 14.6933C8.92913 15.2742 9.53948 15.8437 10.195 16.3221C10.7602 16.7207 11.4045 17.0283 12.0487 17.3016C13.439 17.9167 14.9083 18.1103 16.4229 17.985C16.5473 17.9736 16.6716 17.9622 16.7846 17.9167C17.2254 17.7231 17.9149 18.1331 18.0279 18.4634C18.2201 19.0101 17.9488 19.6252 17.4289 19.8302C17.3724 19.853 17.3045 19.8644 17.2367 19.8644C16.1969 19.8758 15.1457 19.8986 14.1058 19.8872C13.3825 19.8758 12.7043 19.6822 12.0261 19.4316C11.4723 19.2266 10.8958 19.0671 10.3759 18.7937C9.77684 18.4748 9.2004 18.0875 8.64656 17.7003C7.58409 16.9371 6.71377 15.969 6.00169 14.8641C5.51567 14.101 5.08616 13.3037 4.8714 12.4039C4.69056 11.6635 4.53232 10.9118 4.34017 10.1714C4.13672 9.38547 3.92196 8.59955 3.6846 7.82502C3.50376 7.24413 3.31161 6.65184 3.07425 6.09372C2.82559 5.52422 2.52041 4.97749 2.21523 4.44215C1.83094 3.77014 1.42403 3.10951 1.02843 2.46027C0.73456 1.98188 0.440686 1.5035 0.124206 1.02511C-0.0905485 0.694798 -0.0340342 0.512556 0.350263 0.478386C2.0683 0.307534 3.77503 0.159462 5.64 0Z" fill="black"/>
</svg>
