<svg width="35" height="66" viewBox="0 0 35 66" fill="none" xmlns="http://www.w3.org/2000/svg">
<path d="M0.0159863 54.011C0.0125269 54.011 0.0125269 54.011 0.00906751 54.011C0.00906751 60.2188 0.00906751 58.2327 0.00906751 64.4406C0.00906751 64.6866 -0.00131073 64.9327 0.0229052 65.1754C0.071337 65.6641 0.483007 66.0107 0.960406 66.0003C1.42397 65.9899 1.76645 65.6468 1.80104 65.1476C1.81142 65.0021 1.81142 64.853 1.81142 64.7074C1.81834 58.0282 1.82526 59.536 1.82526 52.8568C1.82526 49.2693 1.81488 45.6853 1.81142 42.0979C1.81142 41.2799 1.84256 40.4653 1.84256 39.6473C1.83564 37.9143 1.81142 36.1812 1.8045 34.4482C1.79758 32.417 1.77683 30.3858 1.8045 28.3582C1.81488 27.4292 1.82526 26.483 2.01207 25.5818C2.2992 24.178 3.06027 23.0585 4.43366 22.4588C5.30543 22.0775 6.21526 21.9458 7.15968 21.9874C8.56766 22.0498 9.65391 22.6668 10.4046 23.8661C11.2314 25.1867 11.4909 26.6702 11.5151 28.1849C11.567 31.2732 11.5531 34.365 11.5566 37.4533C11.5601 38.8224 11.5324 40.1915 11.5324 41.5606C11.5289 45.7027 11.5358 49.8482 11.5289 53.9902C11.5255 55.0924 11.5981 56.1773 11.9683 57.231C12.7051 59.3211 13.9782 60.919 16.0988 61.7266C17.8631 62.399 19.6793 62.4371 21.5024 62.0524C24.5813 61.4042 26.4182 58.9329 26.3352 56.0803C26.2729 53.8862 26.3145 51.6921 26.3179 49.4981C26.3248 45.259 26.3421 41.0165 26.3456 36.7774C26.3456 33.436 26.3387 30.0982 26.3145 26.7568C26.311 26.2577 26.4736 26.1086 26.9648 26.119C28.1237 26.1502 29.2861 26.1329 30.445 26.1225C30.7356 26.119 31.04 26.1017 31.3133 26.0151C32.7317 25.561 33.5343 24.4449 33.5446 22.9163C33.555 21.114 33.5343 19.315 33.5585 17.5126C33.5619 17.2735 33.7003 16.9719 33.8802 16.8125C34.579 16.1886 34.9768 15.4399 34.9837 14.5006C34.9941 13.4538 35.008 12.4036 34.9803 11.3568C34.9457 9.93223 33.9459 8.68096 32.576 8.46952C31.9844 8.3794 31.9256 8.12291 31.9291 7.64458C31.9498 5.87686 31.9395 4.10913 31.9464 2.33794C31.9498 1.7591 31.8218 1.23225 31.4205 0.798981C30.7529 0.0606959 29.4037 -0.226993 28.3693 0.213206C27.5252 0.573683 26.9614 1.10747 26.9856 2.45579C27.0167 4.25818 26.9821 6.0571 26.9925 7.85948C26.996 8.26155 26.8645 8.41753 26.4528 8.4002C25.8163 8.37247 25.1798 8.3898 24.5398 8.39327C23.8652 8.39327 23.8548 8.38633 23.8548 7.71391C23.8548 5.88032 23.8548 4.04674 23.8548 2.21316C23.8548 1.67245 23.7234 1.18026 23.3359 0.774718C22.6682 0.0676282 21.3329 -0.192331 20.3227 0.192409C19.3541 0.563284 18.9148 1.27731 18.9148 2.47659C18.9148 4.26164 18.9113 6.0467 18.9217 7.83175C18.9217 8.19223 18.8456 8.38287 18.4166 8.43139C17.0225 8.59777 15.9085 9.86984 15.8739 11.3013C15.8497 12.3966 15.8601 13.4954 15.8774 14.5942C15.8912 15.4399 16.2268 16.1609 16.8772 16.6946C17.1885 16.9511 17.3061 17.2215 17.3027 17.6166C17.2888 19.4017 17.2854 21.1867 17.3027 22.9718C17.32 24.8123 18.638 26.1156 20.468 26.126C21.6131 26.1329 22.7582 26.1537 23.8998 26.1156C24.4118 26.0982 24.5329 26.2785 24.5294 26.7637C24.5017 29.547 24.4948 32.3303 24.4948 35.1102C24.4948 37.0061 24.5259 38.9056 24.5294 40.8016C24.5329 45.9765 24.5432 51.1514 24.5156 56.3263C24.5086 57.8203 23.8617 59.0403 22.4918 59.7197C21.8345 60.0455 21.0907 60.2604 20.3608 60.3713C18.8283 60.6035 17.3061 60.4614 15.9639 59.6192C14.1166 58.465 13.3832 56.6452 13.3659 54.5656C13.314 48.3993 13.3313 42.2296 13.3278 36.0634C13.3278 33.6579 13.3278 31.2489 13.352 28.8434C13.3659 27.4084 13.2171 26.0012 12.7605 24.6355C12.1827 22.9129 11.2141 21.5056 9.52592 20.7015C8.26669 20.0984 6.92444 20.0741 5.5891 20.2474C4.06004 20.445 2.70049 21.0654 1.66959 22.2543C0.662897 23.4155 0.0782558 24.8088 0.0367428 26.3235C-0.0393643 29.1692 0.0263646 32.0149 0.0263646 34.8641C0.0263646 36.7462 0.0159863 38.6283 0.0159863 40.5104C0.0125269 45.0025 0.0159863 49.505 0.0159863 54.011Z" fill="white"/>
<path d="M0.0159863 54.0104C0.0159863 49.5079 0.0159863 45.0054 0.0159863 40.4995C0.0159863 38.6174 0.0263646 36.7353 0.0263646 34.8531C0.0263646 32.0075 -0.0393643 29.1583 0.0367428 26.3126C0.0782558 24.7979 0.662897 23.4045 1.66959 22.2434C2.70049 21.0545 4.06004 20.4306 5.5891 20.2365C6.92444 20.0666 8.26669 20.0874 9.52592 20.6905C11.2141 21.4982 12.1827 22.9054 12.7605 24.6246C13.2171 25.9868 13.3659 27.394 13.352 28.8325C13.3278 31.238 13.3278 33.6469 13.3278 36.0524C13.3313 42.2221 13.314 48.3884 13.3659 54.5546C13.3832 56.6343 14.12 58.4505 15.9639 59.6082C17.3096 60.4505 18.8283 60.5961 20.3608 60.3604C21.0907 60.2495 21.8345 60.0346 22.4918 59.7088C23.8617 59.0294 24.5052 57.8093 24.5156 56.3154C24.5432 51.1405 24.5329 45.9656 24.5294 40.7906C24.5294 38.8947 24.4948 36.9952 24.4948 35.0992C24.4948 32.3159 24.5017 29.5326 24.5294 26.7528C24.5329 26.2675 24.4118 26.0908 23.8998 26.1046C22.7582 26.1428 21.6131 26.122 20.468 26.115C18.638 26.1046 17.32 24.8014 17.3027 22.9609C17.2854 21.1758 17.2888 19.3908 17.3027 17.6057C17.3061 17.2106 17.192 16.9402 16.8772 16.6837C16.2233 16.1499 15.8878 15.429 15.8774 14.5832C15.8601 13.4879 15.8463 12.3892 15.8739 11.2904C15.9085 9.8589 17.0225 8.58683 18.4166 8.42046C18.8421 8.36847 18.9217 8.18129 18.9217 7.82082C18.9148 6.03576 18.9148 4.25071 18.9148 2.46565C18.9148 1.26637 19.3541 0.552347 20.3227 0.181472C21.3294 -0.203269 22.6648 0.056691 23.3394 0.760315C23.7268 1.16585 23.8583 1.65804 23.8583 2.19876C23.8583 4.03234 23.8583 5.86592 23.8583 7.6995C23.8583 8.37193 23.8652 8.37886 24.5432 8.37886C25.1798 8.37886 25.8198 8.35807 26.4563 8.3858C26.868 8.40313 26.996 8.24715 26.996 7.84508C26.9821 6.04269 27.0167 4.24377 26.989 2.44139C26.9648 1.0896 27.5287 0.55928 28.3728 0.198802C29.4037 -0.227531 30.7529 0.0601572 31.424 0.79151C31.8218 1.22478 31.9498 1.75509 31.9498 2.33047C31.9429 4.0982 31.9533 5.86939 31.9325 7.63711C31.9256 8.1189 31.9879 8.37193 32.5795 8.46205C33.9494 8.67002 34.9492 9.92476 34.9837 11.3493C35.0114 12.3961 34.9976 13.4463 34.9872 14.4931C34.9803 15.4324 34.5825 16.1811 33.8837 16.805C33.7072 16.9645 33.5654 17.266 33.5619 17.5052C33.5377 19.3041 33.5585 21.1065 33.5481 22.9089C33.5377 24.4374 32.7351 25.5535 31.3168 26.0076C31.0435 26.0942 30.739 26.1116 30.4485 26.115C29.2896 26.1289 28.1272 26.1428 26.9683 26.1116C26.477 26.0977 26.3145 26.2502 26.3179 26.7493C26.3421 30.0907 26.3525 33.4286 26.349 36.7699C26.3456 41.009 26.3283 45.2515 26.3214 49.4906C26.3179 51.6847 26.2764 53.8822 26.3387 56.0728C26.4217 58.9254 24.5847 61.3968 21.5059 62.0449C19.6828 62.4297 17.87 62.3881 16.1023 61.7191C13.9816 60.9115 12.7086 59.3171 11.9717 57.2235C11.6016 56.1733 11.5324 55.0849 11.5324 53.9827C11.5393 49.8407 11.5324 45.6952 11.5358 41.5532C11.5358 40.1841 11.5635 38.8149 11.5601 37.4458C11.5566 34.3575 11.567 31.2657 11.5185 28.1774C11.4943 26.6627 11.2349 25.1792 10.4081 23.8586C9.65737 22.6628 8.57112 22.0423 7.16314 21.9799C6.21872 21.9384 5.30889 22.0701 4.43712 22.4513C3.06373 23.0544 2.30612 24.1705 2.01553 25.5743C1.82872 26.4755 1.8218 27.4218 1.80796 28.3507C1.78029 30.3818 1.80104 32.413 1.80796 34.4407C1.81488 36.1737 1.8391 37.9068 1.84602 39.6399C1.84948 40.4579 1.81488 41.2724 1.81488 42.0904C1.81488 45.6779 1.82872 49.2618 1.82872 52.8493C1.82872 59.5285 1.81834 58.0207 1.81488 64.7C1.81488 64.849 1.81834 64.9946 1.8045 65.1402C1.76645 65.6393 1.42743 65.979 0.963866 65.9928C0.486467 66.0067 0.0747964 65.6566 0.0263646 65.1679C0.00214868 64.9253 0.0125269 64.6757 0.0125269 64.4331C0.0125269 58.2253 0.0125269 60.2113 0.0125269 54.0035C0.00906751 54.0104 0.0125269 54.0104 0.0159863 54.0104ZM25.4634 17.4774V17.4809C23.5365 17.4809 21.6097 17.4844 19.6828 17.4774C19.3576 17.4774 19.1465 17.5225 19.1465 17.9142C19.1535 19.6334 19.1292 21.3526 19.1569 23.0683C19.1708 23.8239 19.707 24.3057 20.4611 24.3092C23.7752 24.3161 27.0928 24.3127 30.4069 24.3023C31.1922 24.2988 31.6696 23.8517 31.6869 23.0648C31.7215 21.3491 31.7077 19.6299 31.725 17.9107C31.7284 17.5156 31.5174 17.4705 31.1957 17.4705C29.2826 17.4844 27.373 17.4774 25.4634 17.4774ZM25.415 15.6751C27.5391 15.6751 29.6632 15.6785 31.7872 15.6751C32.6452 15.6751 33.1606 15.1725 33.1676 14.3094C33.1779 13.377 33.1779 12.4412 33.1641 11.5088C33.1537 10.7358 32.6383 10.202 31.8737 10.202C27.5771 10.1951 23.2771 10.1986 18.9805 10.202C18.2056 10.202 17.6728 10.7601 17.6659 11.5434C17.659 12.4273 17.6625 13.3112 17.6694 14.195C17.6763 15.1933 18.1537 15.6716 19.1362 15.6716C21.2326 15.6751 23.3255 15.6716 25.415 15.6751ZM30.0956 5.21429C30.0991 4.2819 30.0852 3.34605 30.1025 2.41366C30.1129 1.9492 29.8396 1.85561 29.4798 1.86254C29.127 1.86948 28.8087 1.90067 28.8156 2.42059C28.8398 4.25417 28.8398 6.08775 28.8225 7.92133C28.8191 8.39619 29.0751 8.40659 29.4176 8.39273C29.7566 8.38233 30.1198 8.48285 30.1025 7.9144C30.0714 7.01668 30.0956 6.11548 30.0956 5.21429ZM22.0213 5.17963C22.0213 5.17963 22.0248 5.17963 22.0213 5.17963C22.0248 4.27843 22.004 3.37724 22.0317 2.47951C22.0455 2.01852 21.8414 1.84868 21.4332 1.85908C21.0527 1.86948 20.7344 1.9284 20.7413 2.45525C20.7656 4.28883 20.7656 6.12241 20.7586 7.956C20.7586 8.5903 21.2187 8.3442 21.5266 8.39273C21.8829 8.44819 22.0282 8.30261 22.0248 7.9352C22.0109 7.01668 22.0213 6.09815 22.0213 5.17963Z" fill="black"/>
<path d="M25.4633 17.4773C27.3729 17.4773 29.2859 17.4808 31.1955 17.4739C31.5207 17.4739 31.7283 17.5189 31.7248 17.9141C31.7075 19.6333 31.7213 21.349 31.6867 23.0682C31.6694 23.855 31.192 24.3021 30.4068 24.3056C27.0926 24.316 23.7751 24.3195 20.4609 24.3125C19.7033 24.3125 19.1706 23.8308 19.1567 23.0717C19.1256 21.3525 19.1533 19.6367 19.1464 17.9175C19.1464 17.5259 19.3574 17.4773 19.6826 17.4808C21.6095 17.4912 23.5364 17.4843 25.4633 17.4843C25.4633 17.4808 25.4633 17.4808 25.4633 17.4773Z" fill="white"/>
<path d="M25.4149 15.6715C23.3219 15.6715 21.2325 15.6715 19.1395 15.6715C18.1536 15.6715 17.6796 15.1932 17.6727 14.195C17.6658 13.3111 17.6658 12.4272 17.6693 11.5434C17.6727 10.76 18.2089 10.2054 18.9838 10.202C23.2804 10.195 27.5805 10.195 31.8771 10.202C32.6416 10.202 33.1571 10.7358 33.1674 11.5087C33.1778 12.4411 33.1778 13.3769 33.1709 14.3093C33.1605 15.1689 32.6485 15.6715 31.7906 15.675C29.6665 15.675 27.5424 15.675 25.4149 15.6715Z" fill="white"/>
<path d="M30.0945 5.21415C30.0945 6.11535 30.0738 7.01654 30.1015 7.91427C30.1188 8.48271 29.7555 8.3822 29.4165 8.39259C29.074 8.40299 28.818 8.39606 28.8215 7.9212C28.8388 6.08762 28.8388 4.25404 28.8146 2.42046C28.8076 1.904 29.1259 1.87281 29.4788 1.86241C29.8351 1.85548 30.1118 1.94906 30.1015 2.41352C30.0807 3.34591 30.0945 4.28177 30.0945 5.21415Z" fill="white"/>
<path d="M22.0213 5.17968C22.0213 6.0982 22.0109 7.01326 22.0248 7.93179C22.0317 8.30266 21.8829 8.44824 21.5266 8.38931C21.2187 8.34079 20.7552 8.59035 20.7586 7.95258C20.7621 6.119 20.7655 4.28542 20.7413 2.45184C20.7344 1.92499 21.0527 1.86606 21.4332 1.85566C21.8414 1.84527 22.049 2.01857 22.0317 2.4761C22.004 3.38076 22.0248 4.28195 22.0213 5.17968C22.0248 5.17968 22.0213 5.17968 22.0213 5.17968Z" fill="white"/>
</svg>
