<?xml version="1.0" encoding="UTF-8"?>
<svg width="60px" height="60px" viewBox="0 0 60 60" version="1.1" xmlns="http://www.w3.org/2000/svg" xmlns:xlink="http://www.w3.org/1999/xlink">
    <!-- Generator: Sketch 52.2 (67145) - http://www.bohemiancoding.com/sketch -->
    <title>Artboard</title>
    <desc>Created with Sketch.</desc>
    <g id="Artboard" stroke="none" stroke-width="1" fill="none" fill-rule="evenodd">
        <g id="Group-(10)" transform="translate(15.000000, 15.000000)" stroke="#FFFFFF" stroke-width="0.7">
            <path d="M18.9537,21.2229 L17.6455,22.5014" id="Path"></path>
            <path d="M24.8844,24.8406 L22.4619,27.2081" id="Path"></path>
            <polygon id="Path" points="20.0162 13.7076 14.3291 19.2656 25.3126 30 30.9997 24.442"></polygon>
            <path d="M5.99863,0 L0.31055,5.55906 L8.00449,13.0785 L9.3126,11.8 L8.00449,13.0785 L10.5433,15.5597 L16.2314,10.0006 L5.99863,0 Z M3.18851,8.37173 L5.61103,6.00416 L3.18851,8.37173 Z" id="Shape"></path>
            <polyline id="Path" points="20.0193 13.7035 29.8644 4.08167 26.0853 0.37878 16.2305 10.0101"></polyline>
            <polyline id="Path" points="10.5428 15.5691 2.25781 23.6662 6.04664 27.3596 14.3317 19.2625"></polyline>
            <path d="M0.93066,27.1229 C1.27951,27.246 1.60897,27.4449 1.88998,27.7195 C2.171,27.9941 2.37449,28.3161 2.50046,28.657 L6.04704,27.3596 L2.25821,23.6567 L0.93066,27.1229 Z" id="Path"></path>
            <path d="M14.332,19.2625 L20.0201,13.7035" id="Path"></path>
            <path d="M16.2311,10.0101 L10.543,15.5692" id="Path"></path>
            <path d="M0.93025,27.1229 L0,29.5757 L2.50974,28.6571 C2.38376,28.3162 2.18027,27.9942 1.89926,27.7196 C1.60856,27.4544 1.27909,27.2555 0.93025,27.1229 Z" id="Path"></path>
        </g>
    </g>
</svg>